<mxfile host="app.diagrams.net" agent="Mozilla/5.0 (X11; Linux x86_64) AppleWebKit/537.36 (KHTML, like Gecko) Chrome/140.0.0.0 Safari/537.36" version="28.2.5">
  <diagram name="Page-1" id="2m1XImUK2fN55_z-3ckq">
    <mxGraphModel grid="1" page="1" gridSize="10" guides="1" tooltips="1" connect="1" arrows="1" fold="1" pageScale="1" pageWidth="850" pageHeight="1100" math="0" shadow="0">
      <root>
        <mxCell id="0" />
        <mxCell id="1" parent="0" />
        <mxCell id="9P2hpkJDDSAmae0XuFdl-1" value="users" style="shape=table;startSize=30;container=1;collapsible=1;childLayout=tableLayout;fixedRows=1;rowLines=0;fontStyle=1;align=center;resizeLast=1;html=1;" vertex="1" parent="1">
          <mxGeometry x="-40" y="120" width="300" height="270" as="geometry" />
        </mxCell>
        <mxCell id="9P2hpkJDDSAmae0XuFdl-2" value="" style="shape=tableRow;horizontal=0;startSize=0;swimlaneHead=0;swimlaneBody=0;fillColor=none;collapsible=0;dropTarget=0;points=[[0,0.5],[1,0.5]];portConstraint=eastwest;top=0;left=0;right=0;bottom=1;" vertex="1" parent="9P2hpkJDDSAmae0XuFdl-1">
          <mxGeometry y="30" width="300" height="30" as="geometry" />
        </mxCell>
        <mxCell id="9P2hpkJDDSAmae0XuFdl-3" value="PK" style="shape=partialRectangle;connectable=0;fillColor=none;top=0;left=0;bottom=0;right=0;fontStyle=1;overflow=hidden;whiteSpace=wrap;html=1;" vertex="1" parent="9P2hpkJDDSAmae0XuFdl-2">
          <mxGeometry width="30" height="30" as="geometry">
            <mxRectangle width="30" height="30" as="alternateBounds" />
          </mxGeometry>
        </mxCell>
        <mxCell id="9P2hpkJDDSAmae0XuFdl-4" value="user_id" style="shape=partialRectangle;connectable=0;fillColor=none;top=0;left=0;bottom=0;right=0;align=left;spacingLeft=6;fontStyle=5;overflow=hidden;whiteSpace=wrap;html=1;" vertex="1" parent="9P2hpkJDDSAmae0XuFdl-2">
          <mxGeometry x="30" width="270" height="30" as="geometry">
            <mxRectangle width="270" height="30" as="alternateBounds" />
          </mxGeometry>
        </mxCell>
        <mxCell id="9P2hpkJDDSAmae0XuFdl-5" value="" style="shape=tableRow;horizontal=0;startSize=0;swimlaneHead=0;swimlaneBody=0;fillColor=none;collapsible=0;dropTarget=0;points=[[0,0.5],[1,0.5]];portConstraint=eastwest;top=0;left=0;right=0;bottom=0;" vertex="1" parent="9P2hpkJDDSAmae0XuFdl-1">
          <mxGeometry y="60" width="300" height="30" as="geometry" />
        </mxCell>
        <mxCell id="9P2hpkJDDSAmae0XuFdl-6" value="" style="shape=partialRectangle;connectable=0;fillColor=none;top=0;left=0;bottom=0;right=0;editable=1;overflow=hidden;whiteSpace=wrap;html=1;" vertex="1" parent="9P2hpkJDDSAmae0XuFdl-5">
          <mxGeometry width="30" height="30" as="geometry">
            <mxRectangle width="30" height="30" as="alternateBounds" />
          </mxGeometry>
        </mxCell>
        <mxCell id="9P2hpkJDDSAmae0XuFdl-7" value="username | varchar(200) | Not Null" style="shape=partialRectangle;connectable=0;fillColor=none;top=0;left=0;bottom=0;right=0;align=left;spacingLeft=6;overflow=hidden;whiteSpace=wrap;html=1;" vertex="1" parent="9P2hpkJDDSAmae0XuFdl-5">
          <mxGeometry x="30" width="270" height="30" as="geometry">
            <mxRectangle width="270" height="30" as="alternateBounds" />
          </mxGeometry>
        </mxCell>
        <mxCell id="KkAj1kQyP0uN1ew_DBom-48" value="" style="shape=tableRow;horizontal=0;startSize=0;swimlaneHead=0;swimlaneBody=0;fillColor=none;collapsible=0;dropTarget=0;points=[[0,0.5],[1,0.5]];portConstraint=eastwest;top=0;left=0;right=0;bottom=0;" vertex="1" parent="9P2hpkJDDSAmae0XuFdl-1">
          <mxGeometry y="90" width="300" height="30" as="geometry" />
        </mxCell>
        <mxCell id="KkAj1kQyP0uN1ew_DBom-49" value="" style="shape=partialRectangle;connectable=0;fillColor=none;top=0;left=0;bottom=0;right=0;editable=1;overflow=hidden;whiteSpace=wrap;html=1;" vertex="1" parent="KkAj1kQyP0uN1ew_DBom-48">
          <mxGeometry width="30" height="30" as="geometry">
            <mxRectangle width="30" height="30" as="alternateBounds" />
          </mxGeometry>
        </mxCell>
        <mxCell id="KkAj1kQyP0uN1ew_DBom-50" value="role | varchar(20) | Not Null" style="shape=partialRectangle;connectable=0;fillColor=none;top=0;left=0;bottom=0;right=0;align=left;spacingLeft=6;overflow=hidden;whiteSpace=wrap;html=1;" vertex="1" parent="KkAj1kQyP0uN1ew_DBom-48">
          <mxGeometry x="30" width="270" height="30" as="geometry">
            <mxRectangle width="270" height="30" as="alternateBounds" />
          </mxGeometry>
        </mxCell>
        <mxCell id="KkAj1kQyP0uN1ew_DBom-116" value="" style="shape=tableRow;horizontal=0;startSize=0;swimlaneHead=0;swimlaneBody=0;fillColor=none;collapsible=0;dropTarget=0;points=[[0,0.5],[1,0.5]];portConstraint=eastwest;top=0;left=0;right=0;bottom=0;" vertex="1" parent="9P2hpkJDDSAmae0XuFdl-1">
          <mxGeometry y="120" width="300" height="30" as="geometry" />
        </mxCell>
        <mxCell id="KkAj1kQyP0uN1ew_DBom-117" value="" style="shape=partialRectangle;connectable=0;fillColor=none;top=0;left=0;bottom=0;right=0;editable=1;overflow=hidden;whiteSpace=wrap;html=1;" vertex="1" parent="KkAj1kQyP0uN1ew_DBom-116">
          <mxGeometry width="30" height="30" as="geometry">
            <mxRectangle width="30" height="30" as="alternateBounds" />
          </mxGeometry>
        </mxCell>
        <mxCell id="KkAj1kQyP0uN1ew_DBom-118" value="email | varchar(150) | Not Null" style="shape=partialRectangle;connectable=0;fillColor=none;top=0;left=0;bottom=0;right=0;align=left;spacingLeft=6;overflow=hidden;whiteSpace=wrap;html=1;" vertex="1" parent="KkAj1kQyP0uN1ew_DBom-116">
          <mxGeometry x="30" width="270" height="30" as="geometry">
            <mxRectangle width="270" height="30" as="alternateBounds" />
          </mxGeometry>
        </mxCell>
        <mxCell id="KkAj1kQyP0uN1ew_DBom-91" value="" style="shape=tableRow;horizontal=0;startSize=0;swimlaneHead=0;swimlaneBody=0;fillColor=none;collapsible=0;dropTarget=0;points=[[0,0.5],[1,0.5]];portConstraint=eastwest;top=0;left=0;right=0;bottom=0;" vertex="1" parent="9P2hpkJDDSAmae0XuFdl-1">
          <mxGeometry y="150" width="300" height="30" as="geometry" />
        </mxCell>
        <mxCell id="KkAj1kQyP0uN1ew_DBom-92" value="" style="shape=partialRectangle;connectable=0;fillColor=none;top=0;left=0;bottom=0;right=0;editable=1;overflow=hidden;whiteSpace=wrap;html=1;" vertex="1" parent="KkAj1kQyP0uN1ew_DBom-91">
          <mxGeometry width="30" height="30" as="geometry">
            <mxRectangle width="30" height="30" as="alternateBounds" />
          </mxGeometry>
        </mxCell>
        <mxCell id="KkAj1kQyP0uN1ew_DBom-93" value="phone_number | varchar(15) | Not Null" style="shape=partialRectangle;connectable=0;fillColor=none;top=0;left=0;bottom=0;right=0;align=left;spacingLeft=6;overflow=hidden;whiteSpace=wrap;html=1;" vertex="1" parent="KkAj1kQyP0uN1ew_DBom-91">
          <mxGeometry x="30" width="270" height="30" as="geometry">
            <mxRectangle width="270" height="30" as="alternateBounds" />
          </mxGeometry>
        </mxCell>
        <mxCell id="9P2hpkJDDSAmae0XuFdl-17" value="" style="shape=tableRow;horizontal=0;startSize=0;swimlaneHead=0;swimlaneBody=0;fillColor=none;collapsible=0;dropTarget=0;points=[[0,0.5],[1,0.5]];portConstraint=eastwest;top=0;left=0;right=0;bottom=0;" vertex="1" parent="9P2hpkJDDSAmae0XuFdl-1">
          <mxGeometry y="180" width="300" height="30" as="geometry" />
        </mxCell>
        <mxCell id="9P2hpkJDDSAmae0XuFdl-18" value="" style="shape=partialRectangle;connectable=0;fillColor=none;top=0;left=0;bottom=0;right=0;editable=1;overflow=hidden;whiteSpace=wrap;html=1;" vertex="1" parent="9P2hpkJDDSAmae0XuFdl-17">
          <mxGeometry width="30" height="30" as="geometry">
            <mxRectangle width="30" height="30" as="alternateBounds" />
          </mxGeometry>
        </mxCell>
        <mxCell id="9P2hpkJDDSAmae0XuFdl-19" value="password_hash | Not Null" style="shape=partialRectangle;connectable=0;fillColor=none;top=0;left=0;bottom=0;right=0;align=left;spacingLeft=6;overflow=hidden;whiteSpace=wrap;html=1;" vertex="1" parent="9P2hpkJDDSAmae0XuFdl-17">
          <mxGeometry x="30" width="270" height="30" as="geometry">
            <mxRectangle width="270" height="30" as="alternateBounds" />
          </mxGeometry>
        </mxCell>
        <mxCell id="9P2hpkJDDSAmae0XuFdl-8" value="" style="shape=tableRow;horizontal=0;startSize=0;swimlaneHead=0;swimlaneBody=0;fillColor=none;collapsible=0;dropTarget=0;points=[[0,0.5],[1,0.5]];portConstraint=eastwest;top=0;left=0;right=0;bottom=0;" vertex="1" parent="9P2hpkJDDSAmae0XuFdl-1">
          <mxGeometry y="210" width="300" height="30" as="geometry" />
        </mxCell>
        <mxCell id="9P2hpkJDDSAmae0XuFdl-9" value="" style="shape=partialRectangle;connectable=0;fillColor=none;top=0;left=0;bottom=0;right=0;editable=1;overflow=hidden;whiteSpace=wrap;html=1;" vertex="1" parent="9P2hpkJDDSAmae0XuFdl-8">
          <mxGeometry width="30" height="30" as="geometry">
            <mxRectangle width="30" height="30" as="alternateBounds" />
          </mxGeometry>
        </mxCell>
        <mxCell id="9P2hpkJDDSAmae0XuFdl-10" value="created_at | datetime" style="shape=partialRectangle;connectable=0;fillColor=none;top=0;left=0;bottom=0;right=0;align=left;spacingLeft=6;overflow=hidden;whiteSpace=wrap;html=1;" vertex="1" parent="9P2hpkJDDSAmae0XuFdl-8">
          <mxGeometry x="30" width="270" height="30" as="geometry">
            <mxRectangle width="270" height="30" as="alternateBounds" />
          </mxGeometry>
        </mxCell>
        <mxCell id="KkAj1kQyP0uN1ew_DBom-237" value="" style="shape=tableRow;horizontal=0;startSize=0;swimlaneHead=0;swimlaneBody=0;fillColor=none;collapsible=0;dropTarget=0;points=[[0,0.5],[1,0.5]];portConstraint=eastwest;top=0;left=0;right=0;bottom=0;" vertex="1" parent="9P2hpkJDDSAmae0XuFdl-1">
          <mxGeometry y="240" width="300" height="30" as="geometry" />
        </mxCell>
        <mxCell id="KkAj1kQyP0uN1ew_DBom-238" value="" style="shape=partialRectangle;connectable=0;fillColor=none;top=0;left=0;bottom=0;right=0;editable=1;overflow=hidden;whiteSpace=wrap;html=1;" vertex="1" parent="KkAj1kQyP0uN1ew_DBom-237">
          <mxGeometry width="30" height="30" as="geometry">
            <mxRectangle width="30" height="30" as="alternateBounds" />
          </mxGeometry>
        </mxCell>
        <mxCell id="KkAj1kQyP0uN1ew_DBom-239" value="updated_at | datetime" style="shape=partialRectangle;connectable=0;fillColor=none;top=0;left=0;bottom=0;right=0;align=left;spacingLeft=6;overflow=hidden;whiteSpace=wrap;html=1;" vertex="1" parent="KkAj1kQyP0uN1ew_DBom-237">
          <mxGeometry x="30" width="270" height="30" as="geometry">
            <mxRectangle width="270" height="30" as="alternateBounds" />
          </mxGeometry>
        </mxCell>
        <mxCell id="9P2hpkJDDSAmae0XuFdl-61" value="service_variations&lt;span style=&quot;color: light-dark(rgba(0, 0, 0, 0), rgb(237, 237, 237)); font-family: monospace; font-size: 0px; font-weight: 400; text-align: start; background-color: transparent;&quot;&gt;%3CmxGraphModel%3E%3Croot%3E%3CmxCell%20id%3D%220%22%2F%3E%3CmxCell%20id%3D%221%22%20parent%3D%220%22%2F%3E%3CmxCell%20id%3D%222%22%20value%3D%22customers%22%20style%3D%22shape%3Dtable%3BstartSize%3D30%3Bcontainer%3D1%3Bcollapsible%3D1%3BchildLayout%3DtableLayout%3BfixedRows%3D1%3BrowLines%3D0%3BfontStyle%3D1%3Balign%3Dcenter%3BresizeLast%3D1%3Bhtml%3D1%3B%22%20vertex%3D%221%22%20parent%3D%221%22%3E%3CmxGeometry%20x%3D%22-10%22%20y%3D%22160%22%20width%3D%22180%22%20height%3D%22210%22%20as%3D%22geometry%22%2F%3E%3C%2FmxCell%3E%3CmxCell%20id%3D%223%22%20value%3D%22%22%20style%3D%22shape%3DtableRow%3Bhorizontal%3D0%3BstartSize%3D0%3BswimlaneHead%3D0%3BswimlaneBody%3D0%3BfillColor%3Dnone%3Bcollapsible%3D0%3BdropTarget%3D0%3Bpoints%3D%5B%5B0%2C0.5%5D%2C%5B1%2C0.5%5D%5D%3BportConstraint%3Deastwest%3Btop%3D0%3Bleft%3D0%3Bright%3D0%3Bbottom%3D1%3B%22%20vertex%3D%221%22%20parent%3D%222%22%3E%3CmxGeometry%20y%3D%2230%22%20width%3D%22180%22%20height%3D%2230%22%20as%3D%22geometry%22%2F%3E%3C%2FmxCell%3E%3CmxCell%20id%3D%224%22%20value%3D%22PK%22%20style%3D%22shape%3DpartialRectangle%3Bconnectable%3D0%3BfillColor%3Dnone%3Btop%3D0%3Bleft%3D0%3Bbottom%3D0%3Bright%3D0%3BfontStyle%3D1%3Boverflow%3Dhidden%3BwhiteSpace%3Dwrap%3Bhtml%3D1%3B%22%20vertex%3D%221%22%20parent%3D%223%22%3E%3CmxGeometry%20width%3D%2230%22%20height%3D%2230%22%20as%3D%22geometry%22%3E%3CmxRectangle%20width%3D%2230%22%20height%3D%2230%22%20as%3D%22alternateBounds%22%2F%3E%3C%2FmxGeometry%3E%3C%2FmxCell%3E%3CmxCell%20id%3D%225%22%20value%3D%22id%22%20style%3D%22shape%3DpartialRectangle%3Bconnectable%3D0%3BfillColor%3Dnone%3Btop%3D0%3Bleft%3D0%3Bbottom%3D0%3Bright%3D0%3Balign%3Dleft%3BspacingLeft%3D6%3BfontStyle%3D5%3Boverflow%3Dhidden%3BwhiteSpace%3Dwrap%3Bhtml%3D1%3B%22%20vertex%3D%221%22%20parent%3D%223%22%3E%3CmxGeometry%20x%3D%2230%22%20width%3D%22150%22%20height%3D%2230%22%20as%3D%22geometry%22%3E%3CmxRectangle%20width%3D%22150%22%20height%3D%2230%22%20as%3D%22alternateBounds%22%2F%3E%3C%2FmxGeometry%3E%3C%2FmxCell%3E%3CmxCell%20id%3D%226%22%20value%3D%22%22%20style%3D%22shape%3DtableRow%3Bhorizontal%3D0%3BstartSize%3D0%3BswimlaneHead%3D0%3BswimlaneBody%3D0%3BfillColor%3Dnone%3Bcollapsible%3D0%3BdropTarget%3D0%3Bpoints%3D%5B%5B0%2C0.5%5D%2C%5B1%2C0.5%5D%5D%3BportConstraint%3Deastwest%3Btop%3D0%3Bleft%3D0%3Bright%3D0%3Bbottom%3D0%3B%22%20vertex%3D%221%22%20parent%3D%222%22%3E%3CmxGeometry%20y%3D%2260%22%20width%3D%22180%22%20height%3D%2230%22%20as%3D%22geometry%22%2F%3E%3C%2FmxCell%3E%3CmxCell%20id%3D%227%22%20value%3D%22%22%20style%3D%22shape%3DpartialRectangle%3Bconnectable%3D0%3BfillColor%3Dnone%3Btop%3D0%3Bleft%3D0%3Bbottom%3D0%3Bright%3D0%3Beditable%3D1%3Boverflow%3Dhidden%3BwhiteSpace%3Dwrap%3Bhtml%3D1%3B%22%20vertex%3D%221%22%20parent%3D%226%22%3E%3CmxGeometry%20width%3D%2230%22%20height%3D%2230%22%20as%3D%22geometry%22%3E%3CmxRectangle%20width%3D%2230%22%20height%3D%2230%22%20as%3D%22alternateBounds%22%2F%3E%3C%2FmxGeometry%3E%3C%2FmxCell%3E%3CmxCell%20id%3D%228%22%20value%3D%22username%22%20style%3D%22shape%3DpartialRectangle%3Bconnectable%3D0%3BfillColor%3Dnone%3Btop%3D0%3Bleft%3D0%3Bbottom%3D0%3Bright%3D0%3Balign%3Dleft%3BspacingLeft%3D6%3Boverflow%3Dhidden%3BwhiteSpace%3Dwrap%3Bhtml%3D1%3B%22%20vertex%3D%221%22%20parent%3D%226%22%3E%3CmxGeometry%20x%3D%2230%22%20width%3D%22150%22%20height%3D%2230%22%20as%3D%22geometry%22%3E%3CmxRectangle%20width%3D%22150%22%20height%3D%2230%22%20as%3D%22alternateBounds%22%2F%3E%3C%2FmxGeometry%3E%3C%2FmxCell%3E%3CmxCell%20id%3D%229%22%20value%3D%22%22%20style%3D%22shape%3DtableRow%3Bhorizontal%3D0%3BstartSize%3D0%3BswimlaneHead%3D0%3BswimlaneBody%3D0%3BfillColor%3Dnone%3Bcollapsible%3D0%3BdropTarget%3D0%3Bpoints%3D%5B%5B0%2C0.5%5D%2C%5B1%2C0.5%5D%5D%3BportConstraint%3Deastwest%3Btop%3D0%3Bleft%3D0%3Bright%3D0%3Bbottom%3D0%3B%22%20vertex%3D%221%22%20parent%3D%222%22%3E%3CmxGeometry%20y%3D%2290%22%20width%3D%22180%22%20height%3D%2230%22%20as%3D%22geometry%22%2F%3E%3C%2FmxCell%3E%3CmxCell%20id%3D%2210%22%20value%3D%22%22%20style%3D%22shape%3DpartialRectangle%3Bconnectable%3D0%3BfillColor%3Dnone%3Btop%3D0%3Bleft%3D0%3Bbottom%3D0%3Bright%3D0%3Beditable%3D1%3Boverflow%3Dhidden%3BwhiteSpace%3Dwrap%3Bhtml%3D1%3B%22%20vertex%3D%221%22%20parent%3D%229%22%3E%3CmxGeometry%20width%3D%2230%22%20height%3D%2230%22%20as%3D%22geometry%22%3E%3CmxRectangle%20width%3D%2230%22%20height%3D%2230%22%20as%3D%22alternateBounds%22%2F%3E%3C%2FmxGeometry%3E%3C%2FmxCell%3E%3CmxCell%20id%3D%2211%22%20value%3D%22created_at%22%20style%3D%22shape%3DpartialRectangle%3Bconnectable%3D0%3BfillColor%3Dnone%3Btop%3D0%3Bleft%3D0%3Bbottom%3D0%3Bright%3D0%3Balign%3Dleft%3BspacingLeft%3D6%3Boverflow%3Dhidden%3BwhiteSpace%3Dwrap%3Bhtml%3D1%3B%22%20vertex%3D%221%22%20parent%3D%229%22%3E%3CmxGeometry%20x%3D%2230%22%20width%3D%22150%22%20height%3D%2230%22%20as%3D%22geometry%22%3E%3CmxRectangle%20width%3D%22150%22%20height%3D%2230%22%20as%3D%22alternateBounds%22%2F%3E%3C%2FmxGeometry%3E%3C%2FmxCell%3E%3CmxCell%20id%3D%2212%22%20value%3D%22%22%20style%3D%22shape%3DtableRow%3Bhorizontal%3D0%3BstartSize%3D0%3BswimlaneHead%3D0%3BswimlaneBody%3D0%3BfillColor%3Dnone%3Bcollapsible%3D0%3BdropTarget%3D0%3Bpoints%3D%5B%5B0%2C0.5%5D%2C%5B1%2C0.5%5D%5D%3BportConstraint%3Deastwest%3Btop%3D0%3Bleft%3D0%3Bright%3D0%3Bbottom%3D0%3B%22%20vertex%3D%221%22%20parent%3D%222%22%3E%3CmxGeometry%20y%3D%22120%22%20width%3D%22180%22%20height%3D%2230%22%20as%3D%22geometry%22%2F%3E%3C%2FmxCell%3E%3CmxCell%20id%3D%2213%22%20value%3D%22%22%20style%3D%22shape%3DpartialRectangle%3Bconnectable%3D0%3BfillColor%3Dnone%3Btop%3D0%3Bleft%3D0%3Bbottom%3D0%3Bright%3D0%3Beditable%3D1%3Boverflow%3Dhidden%3BwhiteSpace%3Dwrap%3Bhtml%3D1%3B%22%20vertex%3D%221%22%20parent%3D%2212%22%3E%3CmxGeometry%20width%3D%2230%22%20height%3D%2230%22%20as%3D%22geometry%22%3E%3CmxRectangle%20width%3D%2230%22%20height%3D%2230%22%20as%3D%22alternateBounds%22%2F%3E%3C%2FmxGeometry%3E%3C%2FmxCell%3E%3CmxCell%20id%3D%2214%22%20value%3D%22updated_at%22%20style%3D%22shape%3DpartialRectangle%3Bconnectable%3D0%3BfillColor%3Dnone%3Btop%3D0%3Bleft%3D0%3Bbottom%3D0%3Bright%3D0%3Balign%3Dleft%3BspacingLeft%3D6%3Boverflow%3Dhidden%3BwhiteSpace%3Dwrap%3Bhtml%3D1%3B%22%20vertex%3D%221%22%20parent%3D%2212%22%3E%3CmxGeometry%20x%3D%2230%22%20width%3D%22150%22%20height%3D%2230%22%20as%3D%22geometry%22%3E%3CmxRectangle%20width%3D%22150%22%20height%3D%2230%22%20as%3D%22alternateBounds%22%2F%3E%3C%2FmxGeometry%3E%3C%2FmxCell%3E%3CmxCell%20id%3D%2215%22%20value%3D%22%22%20style%3D%22shape%3DtableRow%3Bhorizontal%3D0%3BstartSize%3D0%3BswimlaneHead%3D0%3BswimlaneBody%3D0%3BfillColor%3Dnone%3Bcollapsible%3D0%3BdropTarget%3D0%3Bpoints%3D%5B%5B0%2C0.5%5D%2C%5B1%2C0.5%5D%5D%3BportConstraint%3Deastwest%3Btop%3D0%3Bleft%3D0%3Bright%3D0%3Bbottom%3D0%3B%22%20vertex%3D%221%22%20parent%3D%222%22%3E%3CmxGeometry%20y%3D%22150%22%20width%3D%22180%22%20height%3D%2230%22%20as%3D%22geometry%22%2F%3E%3C%2FmxCell%3E%3CmxCell%20id%3D%2216%22%20value%3D%22%22%20style%3D%22shape%3DpartialRectangle%3Bconnectable%3D0%3BfillColor%3Dnone%3Btop%3D0%3Bleft%3D0%3Bbottom%3D0%3Bright%3D0%3Beditable%3D1%3Boverflow%3Dhidden%3BwhiteSpace%3Dwrap%3Bhtml%3D1%3B%22%20vertex%3D%221%22%20parent%3D%2215%22%3E%3CmxGeometry%20width%3D%2230%22%20height%3D%2230%22%20as%3D%22geometry%22%3E%3CmxRectangle%20width%3D%2230%22%20height%3D%2230%22%20as%3D%22alternateBounds%22%2F%3E%3C%2FmxGeometry%3E%3C%2FmxCell%3E%3CmxCell%20id%3D%2217%22%20value%3D%22cpf%22%20style%3D%22shape%3DpartialRectangle%3Bconnectable%3D0%3BfillColor%3Dnone%3Btop%3D0%3Bleft%3D0%3Bbottom%3D0%3Bright%3D0%3Balign%3Dleft%3BspacingLeft%3D6%3Boverflow%3Dhidden%3BwhiteSpace%3Dwrap%3Bhtml%3D1%3B%22%20vertex%3D%221%22%20parent%3D%2215%22%3E%3CmxGeometry%20x%3D%2230%22%20width%3D%22150%22%20height%3D%2230%22%20as%3D%22geometry%22%3E%3CmxRectangle%20width%3D%22150%22%20height%3D%2230%22%20as%3D%22alternateBounds%22%2F%3E%3C%2FmxGeometry%3E%3C%2FmxCell%3E%3CmxCell%20id%3D%2218%22%20value%3D%22%22%20style%3D%22shape%3DtableRow%3Bhorizontal%3D0%3BstartSize%3D0%3BswimlaneHead%3D0%3BswimlaneBody%3D0%3BfillColor%3Dnone%3Bcollapsible%3D0%3BdropTarget%3D0%3Bpoints%3D%5B%5B0%2C0.5%5D%2C%5B1%2C0.5%5D%5D%3BportConstraint%3Deastwest%3Btop%3D0%3Bleft%3D0%3Bright%3D0%3Bbottom%3D0%3B%22%20vertex%3D%221%22%20parent%3D%222%22%3E%3CmxGeometry%20y%3D%22180%22%20width%3D%22180%22%20height%3D%2230%22%20as%3D%22geometry%22%2F%3E%3C%2FmxCell%3E%3CmxCell%20id%3D%2219%22%20value%3D%22%22%20style%3D%22shape%3DpartialRectangle%3Bconnectable%3D0%3BfillColor%3Dnone%3Btop%3D0%3Bleft%3D0%3Bbottom%3D0%3Bright%3D0%3Beditable%3D1%3Boverflow%3Dhidden%3BwhiteSpace%3Dwrap%3Bhtml%3D1%3B%22%20vertex%3D%221%22%20parent%3D%2218%22%3E%3CmxGeometry%20width%3D%2230%22%20height%3D%2230%22%20as%3D%22geometry%22%3E%3CmxRectangle%20width%3D%2230%22%20height%3D%2230%22%20as%3D%22alternateBounds%22%2F%3E%3C%2FmxGeometry%3E%3C%2FmxCell%3E%3CmxCell%20id%3D%2220%22%20value%3D%22password_hash%22%20style%3D%22shape%3DpartialRectangle%3Bconnectable%3D0%3BfillColor%3Dnone%3Btop%3D0%3Bleft%3D0%3Bbottom%3D0%3Bright%3D0%3Balign%3Dleft%3BspacingLeft%3D6%3Boverflow%3Dhidden%3BwhiteSpace%3Dwrap%3Bhtml%3D1%3B%22%20vertex%3D%221%22%20parent%3D%2218%22%3E%3CmxGeometry%20x%3D%2230%22%20width%3D%22150%22%20height%3D%2230%22%20as%3D%22geometry%22%3E%3CmxRectangle%20width%3D%22150%22%20height%3D%2230%22%20as%3D%22alternateBounds%22%2F%3E%3C%2FmxGeometry%3E%3C%2FmxCell%3E%3C%2Froot%3E%3C%2FmxGraphModel%&lt;/span&gt;" style="shape=table;startSize=30;container=1;collapsible=1;childLayout=tableLayout;fixedRows=1;rowLines=0;fontStyle=1;align=center;resizeLast=1;html=1;" vertex="1" parent="1">
          <mxGeometry x="1023" y="610" width="250" height="90" as="geometry" />
        </mxCell>
        <mxCell id="9P2hpkJDDSAmae0XuFdl-62" value="" style="shape=tableRow;horizontal=0;startSize=0;swimlaneHead=0;swimlaneBody=0;fillColor=none;collapsible=0;dropTarget=0;points=[[0,0.5],[1,0.5]];portConstraint=eastwest;top=0;left=0;right=0;bottom=1;" vertex="1" parent="9P2hpkJDDSAmae0XuFdl-61">
          <mxGeometry y="30" width="250" height="30" as="geometry" />
        </mxCell>
        <mxCell id="9P2hpkJDDSAmae0XuFdl-63" value="PK" style="shape=partialRectangle;connectable=0;fillColor=none;top=0;left=0;bottom=0;right=0;fontStyle=1;overflow=hidden;whiteSpace=wrap;html=1;" vertex="1" parent="9P2hpkJDDSAmae0XuFdl-62">
          <mxGeometry width="30" height="30" as="geometry">
            <mxRectangle width="30" height="30" as="alternateBounds" />
          </mxGeometry>
        </mxCell>
        <mxCell id="9P2hpkJDDSAmae0XuFdl-64" value="service_variation_id" style="shape=partialRectangle;connectable=0;fillColor=none;top=0;left=0;bottom=0;right=0;align=left;spacingLeft=6;fontStyle=5;overflow=hidden;whiteSpace=wrap;html=1;" vertex="1" parent="9P2hpkJDDSAmae0XuFdl-62">
          <mxGeometry x="30" width="220" height="30" as="geometry">
            <mxRectangle width="220" height="30" as="alternateBounds" />
          </mxGeometry>
        </mxCell>
        <mxCell id="9P2hpkJDDSAmae0XuFdl-65" value="" style="shape=tableRow;horizontal=0;startSize=0;swimlaneHead=0;swimlaneBody=0;fillColor=none;collapsible=0;dropTarget=0;points=[[0,0.5],[1,0.5]];portConstraint=eastwest;top=0;left=0;right=0;bottom=0;" vertex="1" parent="9P2hpkJDDSAmae0XuFdl-61">
          <mxGeometry y="60" width="250" height="30" as="geometry" />
        </mxCell>
        <mxCell id="9P2hpkJDDSAmae0XuFdl-66" value="" style="shape=partialRectangle;connectable=0;fillColor=none;top=0;left=0;bottom=0;right=0;editable=1;overflow=hidden;whiteSpace=wrap;html=1;" vertex="1" parent="9P2hpkJDDSAmae0XuFdl-65">
          <mxGeometry width="30" height="30" as="geometry">
            <mxRectangle width="30" height="30" as="alternateBounds" />
          </mxGeometry>
        </mxCell>
        <mxCell id="9P2hpkJDDSAmae0XuFdl-67" value="service_type | varchar(100) | Not null" style="shape=partialRectangle;connectable=0;fillColor=none;top=0;left=0;bottom=0;right=0;align=left;spacingLeft=6;overflow=hidden;whiteSpace=wrap;html=1;" vertex="1" parent="9P2hpkJDDSAmae0XuFdl-65">
          <mxGeometry x="30" width="220" height="30" as="geometry">
            <mxRectangle width="220" height="30" as="alternateBounds" />
          </mxGeometry>
        </mxCell>
        <mxCell id="9P2hpkJDDSAmae0XuFdl-42" value="services&lt;span style=&quot;color: rgba(0, 0, 0, 0); font-family: monospace; font-size: 0px; font-weight: 400; text-align: start;&quot;&gt;%3CmxGraphModel%3E%3Croot%3E%3CmxCell%20id%3D%220%22%2F%3E%3CmxCell%20id%3D%221%22%20parent%3D%220%22%2F%3E%3CmxCell%20id%3D%222%22%20value%3D%22customers%22%20style%3D%22shape%3Dtable%3BstartSize%3D30%3Bcontainer%3D1%3Bcollapsible%3D1%3BchildLayout%3DtableLayout%3BfixedRows%3D1%3BrowLines%3D0%3BfontStyle%3D1%3Balign%3Dcenter%3BresizeLast%3D1%3Bhtml%3D1%3B%22%20vertex%3D%221%22%20parent%3D%221%22%3E%3CmxGeometry%20x%3D%22-10%22%20y%3D%22160%22%20width%3D%22180%22%20height%3D%22210%22%20as%3D%22geometry%22%2F%3E%3C%2FmxCell%3E%3CmxCell%20id%3D%223%22%20value%3D%22%22%20style%3D%22shape%3DtableRow%3Bhorizontal%3D0%3BstartSize%3D0%3BswimlaneHead%3D0%3BswimlaneBody%3D0%3BfillColor%3Dnone%3Bcollapsible%3D0%3BdropTarget%3D0%3Bpoints%3D%5B%5B0%2C0.5%5D%2C%5B1%2C0.5%5D%5D%3BportConstraint%3Deastwest%3Btop%3D0%3Bleft%3D0%3Bright%3D0%3Bbottom%3D1%3B%22%20vertex%3D%221%22%20parent%3D%222%22%3E%3CmxGeometry%20y%3D%2230%22%20width%3D%22180%22%20height%3D%2230%22%20as%3D%22geometry%22%2F%3E%3C%2FmxCell%3E%3CmxCell%20id%3D%224%22%20value%3D%22PK%22%20style%3D%22shape%3DpartialRectangle%3Bconnectable%3D0%3BfillColor%3Dnone%3Btop%3D0%3Bleft%3D0%3Bbottom%3D0%3Bright%3D0%3BfontStyle%3D1%3Boverflow%3Dhidden%3BwhiteSpace%3Dwrap%3Bhtml%3D1%3B%22%20vertex%3D%221%22%20parent%3D%223%22%3E%3CmxGeometry%20width%3D%2230%22%20height%3D%2230%22%20as%3D%22geometry%22%3E%3CmxRectangle%20width%3D%2230%22%20height%3D%2230%22%20as%3D%22alternateBounds%22%2F%3E%3C%2FmxGeometry%3E%3C%2FmxCell%3E%3CmxCell%20id%3D%225%22%20value%3D%22id%22%20style%3D%22shape%3DpartialRectangle%3Bconnectable%3D0%3BfillColor%3Dnone%3Btop%3D0%3Bleft%3D0%3Bbottom%3D0%3Bright%3D0%3Balign%3Dleft%3BspacingLeft%3D6%3BfontStyle%3D5%3Boverflow%3Dhidden%3BwhiteSpace%3Dwrap%3Bhtml%3D1%3B%22%20vertex%3D%221%22%20parent%3D%223%22%3E%3CmxGeometry%20x%3D%2230%22%20width%3D%22150%22%20height%3D%2230%22%20as%3D%22geometry%22%3E%3CmxRectangle%20width%3D%22150%22%20height%3D%2230%22%20as%3D%22alternateBounds%22%2F%3E%3C%2FmxGeometry%3E%3C%2FmxCell%3E%3CmxCell%20id%3D%226%22%20value%3D%22%22%20style%3D%22shape%3DtableRow%3Bhorizontal%3D0%3BstartSize%3D0%3BswimlaneHead%3D0%3BswimlaneBody%3D0%3BfillColor%3Dnone%3Bcollapsible%3D0%3BdropTarget%3D0%3Bpoints%3D%5B%5B0%2C0.5%5D%2C%5B1%2C0.5%5D%5D%3BportConstraint%3Deastwest%3Btop%3D0%3Bleft%3D0%3Bright%3D0%3Bbottom%3D0%3B%22%20vertex%3D%221%22%20parent%3D%222%22%3E%3CmxGeometry%20y%3D%2260%22%20width%3D%22180%22%20height%3D%2230%22%20as%3D%22geometry%22%2F%3E%3C%2FmxCell%3E%3CmxCell%20id%3D%227%22%20value%3D%22%22%20style%3D%22shape%3DpartialRectangle%3Bconnectable%3D0%3BfillColor%3Dnone%3Btop%3D0%3Bleft%3D0%3Bbottom%3D0%3Bright%3D0%3Beditable%3D1%3Boverflow%3Dhidden%3BwhiteSpace%3Dwrap%3Bhtml%3D1%3B%22%20vertex%3D%221%22%20parent%3D%226%22%3E%3CmxGeometry%20width%3D%2230%22%20height%3D%2230%22%20as%3D%22geometry%22%3E%3CmxRectangle%20width%3D%2230%22%20height%3D%2230%22%20as%3D%22alternateBounds%22%2F%3E%3C%2FmxGeometry%3E%3C%2FmxCell%3E%3CmxCell%20id%3D%228%22%20value%3D%22username%22%20style%3D%22shape%3DpartialRectangle%3Bconnectable%3D0%3BfillColor%3Dnone%3Btop%3D0%3Bleft%3D0%3Bbottom%3D0%3Bright%3D0%3Balign%3Dleft%3BspacingLeft%3D6%3Boverflow%3Dhidden%3BwhiteSpace%3Dwrap%3Bhtml%3D1%3B%22%20vertex%3D%221%22%20parent%3D%226%22%3E%3CmxGeometry%20x%3D%2230%22%20width%3D%22150%22%20height%3D%2230%22%20as%3D%22geometry%22%3E%3CmxRectangle%20width%3D%22150%22%20height%3D%2230%22%20as%3D%22alternateBounds%22%2F%3E%3C%2FmxGeometry%3E%3C%2FmxCell%3E%3CmxCell%20id%3D%229%22%20value%3D%22%22%20style%3D%22shape%3DtableRow%3Bhorizontal%3D0%3BstartSize%3D0%3BswimlaneHead%3D0%3BswimlaneBody%3D0%3BfillColor%3Dnone%3Bcollapsible%3D0%3BdropTarget%3D0%3Bpoints%3D%5B%5B0%2C0.5%5D%2C%5B1%2C0.5%5D%5D%3BportConstraint%3Deastwest%3Btop%3D0%3Bleft%3D0%3Bright%3D0%3Bbottom%3D0%3B%22%20vertex%3D%221%22%20parent%3D%222%22%3E%3CmxGeometry%20y%3D%2290%22%20width%3D%22180%22%20height%3D%2230%22%20as%3D%22geometry%22%2F%3E%3C%2FmxCell%3E%3CmxCell%20id%3D%2210%22%20value%3D%22%22%20style%3D%22shape%3DpartialRectangle%3Bconnectable%3D0%3BfillColor%3Dnone%3Btop%3D0%3Bleft%3D0%3Bbottom%3D0%3Bright%3D0%3Beditable%3D1%3Boverflow%3Dhidden%3BwhiteSpace%3Dwrap%3Bhtml%3D1%3B%22%20vertex%3D%221%22%20parent%3D%229%22%3E%3CmxGeometry%20width%3D%2230%22%20height%3D%2230%22%20as%3D%22geometry%22%3E%3CmxRectangle%20width%3D%2230%22%20height%3D%2230%22%20as%3D%22alternateBounds%22%2F%3E%3C%2FmxGeometry%3E%3C%2FmxCell%3E%3CmxCell%20id%3D%2211%22%20value%3D%22created_at%22%20style%3D%22shape%3DpartialRectangle%3Bconnectable%3D0%3BfillColor%3Dnone%3Btop%3D0%3Bleft%3D0%3Bbottom%3D0%3Bright%3D0%3Balign%3Dleft%3BspacingLeft%3D6%3Boverflow%3Dhidden%3BwhiteSpace%3Dwrap%3Bhtml%3D1%3B%22%20vertex%3D%221%22%20parent%3D%229%22%3E%3CmxGeometry%20x%3D%2230%22%20width%3D%22150%22%20height%3D%2230%22%20as%3D%22geometry%22%3E%3CmxRectangle%20width%3D%22150%22%20height%3D%2230%22%20as%3D%22alternateBounds%22%2F%3E%3C%2FmxGeometry%3E%3C%2FmxCell%3E%3CmxCell%20id%3D%2212%22%20value%3D%22%22%20style%3D%22shape%3DtableRow%3Bhorizontal%3D0%3BstartSize%3D0%3BswimlaneHead%3D0%3BswimlaneBody%3D0%3BfillColor%3Dnone%3Bcollapsible%3D0%3BdropTarget%3D0%3Bpoints%3D%5B%5B0%2C0.5%5D%2C%5B1%2C0.5%5D%5D%3BportConstraint%3Deastwest%3Btop%3D0%3Bleft%3D0%3Bright%3D0%3Bbottom%3D0%3B%22%20vertex%3D%221%22%20parent%3D%222%22%3E%3CmxGeometry%20y%3D%22120%22%20width%3D%22180%22%20height%3D%2230%22%20as%3D%22geometry%22%2F%3E%3C%2FmxCell%3E%3CmxCell%20id%3D%2213%22%20value%3D%22%22%20style%3D%22shape%3DpartialRectangle%3Bconnectable%3D0%3BfillColor%3Dnone%3Btop%3D0%3Bleft%3D0%3Bbottom%3D0%3Bright%3D0%3Beditable%3D1%3Boverflow%3Dhidden%3BwhiteSpace%3Dwrap%3Bhtml%3D1%3B%22%20vertex%3D%221%22%20parent%3D%2212%22%3E%3CmxGeometry%20width%3D%2230%22%20height%3D%2230%22%20as%3D%22geometry%22%3E%3CmxRectangle%20width%3D%2230%22%20height%3D%2230%22%20as%3D%22alternateBounds%22%2F%3E%3C%2FmxGeometry%3E%3C%2FmxCell%3E%3CmxCell%20id%3D%2214%22%20value%3D%22updated_at%22%20style%3D%22shape%3DpartialRectangle%3Bconnectable%3D0%3BfillColor%3Dnone%3Btop%3D0%3Bleft%3D0%3Bbottom%3D0%3Bright%3D0%3Balign%3Dleft%3BspacingLeft%3D6%3Boverflow%3Dhidden%3BwhiteSpace%3Dwrap%3Bhtml%3D1%3B%22%20vertex%3D%221%22%20parent%3D%2212%22%3E%3CmxGeometry%20x%3D%2230%22%20width%3D%22150%22%20height%3D%2230%22%20as%3D%22geometry%22%3E%3CmxRectangle%20width%3D%22150%22%20height%3D%2230%22%20as%3D%22alternateBounds%22%2F%3E%3C%2FmxGeometry%3E%3C%2FmxCell%3E%3CmxCell%20id%3D%2215%22%20value%3D%22%22%20style%3D%22shape%3DtableRow%3Bhorizontal%3D0%3BstartSize%3D0%3BswimlaneHead%3D0%3BswimlaneBody%3D0%3BfillColor%3Dnone%3Bcollapsible%3D0%3BdropTarget%3D0%3Bpoints%3D%5B%5B0%2C0.5%5D%2C%5B1%2C0.5%5D%5D%3BportConstraint%3Deastwest%3Btop%3D0%3Bleft%3D0%3Bright%3D0%3Bbottom%3D0%3B%22%20vertex%3D%221%22%20parent%3D%222%22%3E%3CmxGeometry%20y%3D%22150%22%20width%3D%22180%22%20height%3D%2230%22%20as%3D%22geometry%22%2F%3E%3C%2FmxCell%3E%3CmxCell%20id%3D%2216%22%20value%3D%22%22%20style%3D%22shape%3DpartialRectangle%3Bconnectable%3D0%3BfillColor%3Dnone%3Btop%3D0%3Bleft%3D0%3Bbottom%3D0%3Bright%3D0%3Beditable%3D1%3Boverflow%3Dhidden%3BwhiteSpace%3Dwrap%3Bhtml%3D1%3B%22%20vertex%3D%221%22%20parent%3D%2215%22%3E%3CmxGeometry%20width%3D%2230%22%20height%3D%2230%22%20as%3D%22geometry%22%3E%3CmxRectangle%20width%3D%2230%22%20height%3D%2230%22%20as%3D%22alternateBounds%22%2F%3E%3C%2FmxGeometry%3E%3C%2FmxCell%3E%3CmxCell%20id%3D%2217%22%20value%3D%22cpf%22%20style%3D%22shape%3DpartialRectangle%3Bconnectable%3D0%3BfillColor%3Dnone%3Btop%3D0%3Bleft%3D0%3Bbottom%3D0%3Bright%3D0%3Balign%3Dleft%3BspacingLeft%3D6%3Boverflow%3Dhidden%3BwhiteSpace%3Dwrap%3Bhtml%3D1%3B%22%20vertex%3D%221%22%20parent%3D%2215%22%3E%3CmxGeometry%20x%3D%2230%22%20width%3D%22150%22%20height%3D%2230%22%20as%3D%22geometry%22%3E%3CmxRectangle%20width%3D%22150%22%20height%3D%2230%22%20as%3D%22alternateBounds%22%2F%3E%3C%2FmxGeometry%3E%3C%2FmxCell%3E%3CmxCell%20id%3D%2218%22%20value%3D%22%22%20style%3D%22shape%3DtableRow%3Bhorizontal%3D0%3BstartSize%3D0%3BswimlaneHead%3D0%3BswimlaneBody%3D0%3BfillColor%3Dnone%3Bcollapsible%3D0%3BdropTarget%3D0%3Bpoints%3D%5B%5B0%2C0.5%5D%2C%5B1%2C0.5%5D%5D%3BportConstraint%3Deastwest%3Btop%3D0%3Bleft%3D0%3Bright%3D0%3Bbottom%3D0%3B%22%20vertex%3D%221%22%20parent%3D%222%22%3E%3CmxGeometry%20y%3D%22180%22%20width%3D%22180%22%20height%3D%2230%22%20as%3D%22geometry%22%2F%3E%3C%2FmxCell%3E%3CmxCell%20id%3D%2219%22%20value%3D%22%22%20style%3D%22shape%3DpartialRectangle%3Bconnectable%3D0%3BfillColor%3Dnone%3Btop%3D0%3Bleft%3D0%3Bbottom%3D0%3Bright%3D0%3Beditable%3D1%3Boverflow%3Dhidden%3BwhiteSpace%3Dwrap%3Bhtml%3D1%3B%22%20vertex%3D%221%22%20parent%3D%2218%22%3E%3CmxGeometry%20width%3D%2230%22%20height%3D%2230%22%20as%3D%22geometry%22%3E%3CmxRectangle%20width%3D%2230%22%20height%3D%2230%22%20as%3D%22alternateBounds%22%2F%3E%3C%2FmxGeometry%3E%3C%2FmxCell%3E%3CmxCell%20id%3D%2220%22%20value%3D%22password_hash%22%20style%3D%22shape%3DpartialRectangle%3Bconnectable%3D0%3BfillColor%3Dnone%3Btop%3D0%3Bleft%3D0%3Bbottom%3D0%3Bright%3D0%3Balign%3Dleft%3BspacingLeft%3D6%3Boverflow%3Dhidden%3BwhiteSpace%3Dwrap%3Bhtml%3D1%3B%22%20vertex%3D%221%22%20parent%3D%2218%22%3E%3CmxGeometry%20x%3D%2230%22%20width%3D%22150%22%20height%3D%2230%22%20as%3D%22geometry%22%3E%3CmxRectangle%20width%3D%22150%22%20height%3D%2230%22%20as%3D%22alternateBounds%22%2F%3E%3C%2FmxGeometry%3E%3C%2FmxCell%3E%3C%2Froot%3E%3C%2FmxGraphModel%3E&lt;/span&gt;" style="shape=table;startSize=30;container=1;collapsible=1;childLayout=tableLayout;fixedRows=1;rowLines=0;fontStyle=1;align=center;resizeLast=1;html=1;" vertex="1" parent="1">
          <mxGeometry x="700" y="390" width="228" height="260" as="geometry" />
        </mxCell>
        <mxCell id="9P2hpkJDDSAmae0XuFdl-43" value="" style="shape=tableRow;horizontal=0;startSize=0;swimlaneHead=0;swimlaneBody=0;fillColor=none;collapsible=0;dropTarget=0;points=[[0,0.5],[1,0.5]];portConstraint=eastwest;top=0;left=0;right=0;bottom=1;" vertex="1" parent="9P2hpkJDDSAmae0XuFdl-42">
          <mxGeometry y="30" width="228" height="30" as="geometry" />
        </mxCell>
        <mxCell id="9P2hpkJDDSAmae0XuFdl-44" value="PK" style="shape=partialRectangle;connectable=0;fillColor=none;top=0;left=0;bottom=0;right=0;fontStyle=1;overflow=hidden;whiteSpace=wrap;html=1;" vertex="1" parent="9P2hpkJDDSAmae0XuFdl-43">
          <mxGeometry width="30" height="30" as="geometry">
            <mxRectangle width="30" height="30" as="alternateBounds" />
          </mxGeometry>
        </mxCell>
        <mxCell id="9P2hpkJDDSAmae0XuFdl-45" value="service_id" style="shape=partialRectangle;connectable=0;fillColor=none;top=0;left=0;bottom=0;right=0;align=left;spacingLeft=6;fontStyle=5;overflow=hidden;whiteSpace=wrap;html=1;" vertex="1" parent="9P2hpkJDDSAmae0XuFdl-43">
          <mxGeometry x="30" width="198" height="30" as="geometry">
            <mxRectangle width="198" height="30" as="alternateBounds" />
          </mxGeometry>
        </mxCell>
        <mxCell id="9P2hpkJDDSAmae0XuFdl-46" value="" style="shape=tableRow;horizontal=0;startSize=0;swimlaneHead=0;swimlaneBody=0;fillColor=none;collapsible=0;dropTarget=0;points=[[0,0.5],[1,0.5]];portConstraint=eastwest;top=0;left=0;right=0;bottom=0;" vertex="1" parent="9P2hpkJDDSAmae0XuFdl-42">
          <mxGeometry y="60" width="228" height="30" as="geometry" />
        </mxCell>
        <mxCell id="9P2hpkJDDSAmae0XuFdl-47" value="" style="shape=partialRectangle;connectable=0;fillColor=none;top=0;left=0;bottom=0;right=0;editable=1;overflow=hidden;whiteSpace=wrap;html=1;" vertex="1" parent="9P2hpkJDDSAmae0XuFdl-46">
          <mxGeometry width="30" height="30" as="geometry">
            <mxRectangle width="30" height="30" as="alternateBounds" />
          </mxGeometry>
        </mxCell>
        <mxCell id="9P2hpkJDDSAmae0XuFdl-48" value="description | text | Not Null" style="shape=partialRectangle;connectable=0;fillColor=none;top=0;left=0;bottom=0;right=0;align=left;spacingLeft=6;overflow=hidden;whiteSpace=wrap;html=1;" vertex="1" parent="9P2hpkJDDSAmae0XuFdl-46">
          <mxGeometry x="30" width="198" height="30" as="geometry">
            <mxRectangle width="198" height="30" as="alternateBounds" />
          </mxGeometry>
        </mxCell>
        <mxCell id="9P2hpkJDDSAmae0XuFdl-55" value="" style="shape=tableRow;horizontal=0;startSize=0;swimlaneHead=0;swimlaneBody=0;fillColor=none;collapsible=0;dropTarget=0;points=[[0,0.5],[1,0.5]];portConstraint=eastwest;top=0;left=0;right=0;bottom=0;" vertex="1" parent="9P2hpkJDDSAmae0XuFdl-42">
          <mxGeometry y="90" width="228" height="20" as="geometry" />
        </mxCell>
        <mxCell id="9P2hpkJDDSAmae0XuFdl-56" value="" style="shape=partialRectangle;connectable=0;fillColor=none;top=0;left=0;bottom=0;right=0;editable=1;overflow=hidden;whiteSpace=wrap;html=1;" vertex="1" parent="9P2hpkJDDSAmae0XuFdl-55">
          <mxGeometry width="30" height="20" as="geometry">
            <mxRectangle width="30" height="20" as="alternateBounds" />
          </mxGeometry>
        </mxCell>
        <mxCell id="9P2hpkJDDSAmae0XuFdl-57" value="price | int |&amp;nbsp; Not Null" style="shape=partialRectangle;connectable=0;fillColor=none;top=0;left=0;bottom=0;right=0;align=left;spacingLeft=6;overflow=hidden;whiteSpace=wrap;html=1;" vertex="1" parent="9P2hpkJDDSAmae0XuFdl-55">
          <mxGeometry x="30" width="198" height="20" as="geometry">
            <mxRectangle width="198" height="20" as="alternateBounds" />
          </mxGeometry>
        </mxCell>
        <mxCell id="KkAj1kQyP0uN1ew_DBom-292" value="" style="shape=tableRow;horizontal=0;startSize=0;swimlaneHead=0;swimlaneBody=0;fillColor=none;collapsible=0;dropTarget=0;points=[[0,0.5],[1,0.5]];portConstraint=eastwest;top=0;left=0;right=0;bottom=0;" vertex="1" parent="9P2hpkJDDSAmae0XuFdl-42">
          <mxGeometry y="110" width="228" height="30" as="geometry" />
        </mxCell>
        <mxCell id="KkAj1kQyP0uN1ew_DBom-293" value="" style="shape=partialRectangle;connectable=0;fillColor=none;top=0;left=0;bottom=0;right=0;editable=1;overflow=hidden;whiteSpace=wrap;html=1;" vertex="1" parent="KkAj1kQyP0uN1ew_DBom-292">
          <mxGeometry width="30" height="30" as="geometry">
            <mxRectangle width="30" height="30" as="alternateBounds" />
          </mxGeometry>
        </mxCell>
        <mxCell id="KkAj1kQyP0uN1ew_DBom-294" value="duration | int | Not Null" style="shape=partialRectangle;connectable=0;fillColor=none;top=0;left=0;bottom=0;right=0;align=left;spacingLeft=6;overflow=hidden;whiteSpace=wrap;html=1;" vertex="1" parent="KkAj1kQyP0uN1ew_DBom-292">
          <mxGeometry x="30" width="198" height="30" as="geometry">
            <mxRectangle width="198" height="30" as="alternateBounds" />
          </mxGeometry>
        </mxCell>
        <mxCell id="9P2hpkJDDSAmae0XuFdl-49" value="" style="shape=tableRow;horizontal=0;startSize=0;swimlaneHead=0;swimlaneBody=0;fillColor=none;collapsible=0;dropTarget=0;points=[[0,0.5],[1,0.5]];portConstraint=eastwest;top=0;left=0;right=0;bottom=0;" vertex="1" parent="9P2hpkJDDSAmae0XuFdl-42">
          <mxGeometry y="140" width="228" height="30" as="geometry" />
        </mxCell>
        <mxCell id="9P2hpkJDDSAmae0XuFdl-50" value="" style="shape=partialRectangle;connectable=0;fillColor=none;top=0;left=0;bottom=0;right=0;editable=1;overflow=hidden;whiteSpace=wrap;html=1;" vertex="1" parent="9P2hpkJDDSAmae0XuFdl-49">
          <mxGeometry width="30" height="30" as="geometry">
            <mxRectangle width="30" height="30" as="alternateBounds" />
          </mxGeometry>
        </mxCell>
        <mxCell id="9P2hpkJDDSAmae0XuFdl-51" value="created_at | datetime" style="shape=partialRectangle;connectable=0;fillColor=none;top=0;left=0;bottom=0;right=0;align=left;spacingLeft=6;overflow=hidden;whiteSpace=wrap;html=1;" vertex="1" parent="9P2hpkJDDSAmae0XuFdl-49">
          <mxGeometry x="30" width="198" height="30" as="geometry">
            <mxRectangle width="198" height="30" as="alternateBounds" />
          </mxGeometry>
        </mxCell>
        <mxCell id="KkAj1kQyP0uN1ew_DBom-240" value="" style="shape=tableRow;horizontal=0;startSize=0;swimlaneHead=0;swimlaneBody=0;fillColor=none;collapsible=0;dropTarget=0;points=[[0,0.5],[1,0.5]];portConstraint=eastwest;top=0;left=0;right=0;bottom=0;" vertex="1" parent="9P2hpkJDDSAmae0XuFdl-42">
          <mxGeometry y="170" width="228" height="30" as="geometry" />
        </mxCell>
        <mxCell id="KkAj1kQyP0uN1ew_DBom-241" value="" style="shape=partialRectangle;connectable=0;fillColor=none;top=0;left=0;bottom=0;right=0;editable=1;overflow=hidden;whiteSpace=wrap;html=1;" vertex="1" parent="KkAj1kQyP0uN1ew_DBom-240">
          <mxGeometry width="30" height="30" as="geometry">
            <mxRectangle width="30" height="30" as="alternateBounds" />
          </mxGeometry>
        </mxCell>
        <mxCell id="KkAj1kQyP0uN1ew_DBom-242" value="updated_at | datetime" style="shape=partialRectangle;connectable=0;fillColor=none;top=0;left=0;bottom=0;right=0;align=left;spacingLeft=6;overflow=hidden;whiteSpace=wrap;html=1;" vertex="1" parent="KkAj1kQyP0uN1ew_DBom-240">
          <mxGeometry x="30" width="198" height="30" as="geometry">
            <mxRectangle width="198" height="30" as="alternateBounds" />
          </mxGeometry>
        </mxCell>
        <mxCell id="9P2hpkJDDSAmae0XuFdl-58" value="" style="shape=tableRow;horizontal=0;startSize=0;swimlaneHead=0;swimlaneBody=0;fillColor=none;collapsible=0;dropTarget=0;points=[[0,0.5],[1,0.5]];portConstraint=eastwest;top=0;left=0;right=0;bottom=0;" vertex="1" parent="9P2hpkJDDSAmae0XuFdl-42">
          <mxGeometry y="200" width="228" height="30" as="geometry" />
        </mxCell>
        <mxCell id="9P2hpkJDDSAmae0XuFdl-59" value="FK" style="shape=partialRectangle;connectable=0;fillColor=none;top=0;left=0;bottom=0;right=0;editable=1;overflow=hidden;whiteSpace=wrap;html=1;" vertex="1" parent="9P2hpkJDDSAmae0XuFdl-58">
          <mxGeometry width="30" height="30" as="geometry">
            <mxRectangle width="30" height="30" as="alternateBounds" />
          </mxGeometry>
        </mxCell>
        <mxCell id="9P2hpkJDDSAmae0XuFdl-60" value="service_variation_id | int | Not Null" style="shape=partialRectangle;connectable=0;fillColor=none;top=0;left=0;bottom=0;right=0;align=left;spacingLeft=6;overflow=hidden;whiteSpace=wrap;html=1;" vertex="1" parent="9P2hpkJDDSAmae0XuFdl-58">
          <mxGeometry x="30" width="198" height="30" as="geometry">
            <mxRectangle width="198" height="30" as="alternateBounds" />
          </mxGeometry>
        </mxCell>
        <mxCell id="KkAj1kQyP0uN1ew_DBom-42" value="" style="shape=tableRow;horizontal=0;startSize=0;swimlaneHead=0;swimlaneBody=0;fillColor=none;collapsible=0;dropTarget=0;points=[[0,0.5],[1,0.5]];portConstraint=eastwest;top=0;left=0;right=0;bottom=0;" vertex="1" parent="9P2hpkJDDSAmae0XuFdl-42">
          <mxGeometry y="230" width="228" height="30" as="geometry" />
        </mxCell>
        <mxCell id="KkAj1kQyP0uN1ew_DBom-43" value="FK" style="shape=partialRectangle;connectable=0;fillColor=none;top=0;left=0;bottom=0;right=0;editable=1;overflow=hidden;whiteSpace=wrap;html=1;" vertex="1" parent="KkAj1kQyP0uN1ew_DBom-42">
          <mxGeometry width="30" height="30" as="geometry">
            <mxRectangle width="30" height="30" as="alternateBounds" />
          </mxGeometry>
        </mxCell>
        <mxCell id="KkAj1kQyP0uN1ew_DBom-44" value="service_provider_id | int | Not Null" style="shape=partialRectangle;connectable=0;fillColor=none;top=0;left=0;bottom=0;right=0;align=left;spacingLeft=6;overflow=hidden;whiteSpace=wrap;html=1;" vertex="1" parent="KkAj1kQyP0uN1ew_DBom-42">
          <mxGeometry x="30" width="198" height="30" as="geometry">
            <mxRectangle width="198" height="30" as="alternateBounds" />
          </mxGeometry>
        </mxCell>
        <mxCell id="KkAj1kQyP0uN1ew_DBom-1" value="bookings" style="shape=table;startSize=30;container=1;collapsible=1;childLayout=tableLayout;fixedRows=1;rowLines=0;fontStyle=1;align=center;resizeLast=1;html=1;" vertex="1" parent="1">
          <mxGeometry x="10" y="440" width="250" height="300" as="geometry" />
        </mxCell>
        <mxCell id="KkAj1kQyP0uN1ew_DBom-2" value="" style="shape=tableRow;horizontal=0;startSize=0;swimlaneHead=0;swimlaneBody=0;fillColor=none;collapsible=0;dropTarget=0;points=[[0,0.5],[1,0.5]];portConstraint=eastwest;top=0;left=0;right=0;bottom=1;" vertex="1" parent="KkAj1kQyP0uN1ew_DBom-1">
          <mxGeometry y="30" width="250" height="30" as="geometry" />
        </mxCell>
        <mxCell id="KkAj1kQyP0uN1ew_DBom-3" value="PK" style="shape=partialRectangle;connectable=0;fillColor=none;top=0;left=0;bottom=0;right=0;fontStyle=1;overflow=hidden;whiteSpace=wrap;html=1;" vertex="1" parent="KkAj1kQyP0uN1ew_DBom-2">
          <mxGeometry width="30" height="30" as="geometry">
            <mxRectangle width="30" height="30" as="alternateBounds" />
          </mxGeometry>
        </mxCell>
        <mxCell id="KkAj1kQyP0uN1ew_DBom-4" value="bookin_id" style="shape=partialRectangle;connectable=0;fillColor=none;top=0;left=0;bottom=0;right=0;align=left;spacingLeft=6;fontStyle=5;overflow=hidden;whiteSpace=wrap;html=1;" vertex="1" parent="KkAj1kQyP0uN1ew_DBom-2">
          <mxGeometry x="30" width="220" height="30" as="geometry">
            <mxRectangle width="220" height="30" as="alternateBounds" />
          </mxGeometry>
        </mxCell>
        <mxCell id="KkAj1kQyP0uN1ew_DBom-5" value="" style="shape=tableRow;horizontal=0;startSize=0;swimlaneHead=0;swimlaneBody=0;fillColor=none;collapsible=0;dropTarget=0;points=[[0,0.5],[1,0.5]];portConstraint=eastwest;top=0;left=0;right=0;bottom=0;" vertex="1" parent="KkAj1kQyP0uN1ew_DBom-1">
          <mxGeometry y="60" width="250" height="30" as="geometry" />
        </mxCell>
        <mxCell id="KkAj1kQyP0uN1ew_DBom-6" value="" style="shape=partialRectangle;connectable=0;fillColor=none;top=0;left=0;bottom=0;right=0;editable=1;overflow=hidden;whiteSpace=wrap;html=1;" vertex="1" parent="KkAj1kQyP0uN1ew_DBom-5">
          <mxGeometry width="30" height="30" as="geometry">
            <mxRectangle width="30" height="30" as="alternateBounds" />
          </mxGeometry>
        </mxCell>
        <mxCell id="KkAj1kQyP0uN1ew_DBom-7" value="start_datetime | datetime | Not Null" style="shape=partialRectangle;connectable=0;fillColor=none;top=0;left=0;bottom=0;right=0;align=left;spacingLeft=6;overflow=hidden;whiteSpace=wrap;html=1;" vertex="1" parent="KkAj1kQyP0uN1ew_DBom-5">
          <mxGeometry x="30" width="220" height="30" as="geometry">
            <mxRectangle width="220" height="30" as="alternateBounds" />
          </mxGeometry>
        </mxCell>
        <mxCell id="KkAj1kQyP0uN1ew_DBom-39" value="" style="shape=tableRow;horizontal=0;startSize=0;swimlaneHead=0;swimlaneBody=0;fillColor=none;collapsible=0;dropTarget=0;points=[[0,0.5],[1,0.5]];portConstraint=eastwest;top=0;left=0;right=0;bottom=0;" vertex="1" parent="KkAj1kQyP0uN1ew_DBom-1">
          <mxGeometry y="90" width="250" height="30" as="geometry" />
        </mxCell>
        <mxCell id="KkAj1kQyP0uN1ew_DBom-40" value="" style="shape=partialRectangle;connectable=0;fillColor=none;top=0;left=0;bottom=0;right=0;editable=1;overflow=hidden;whiteSpace=wrap;html=1;" vertex="1" parent="KkAj1kQyP0uN1ew_DBom-39">
          <mxGeometry width="30" height="30" as="geometry">
            <mxRectangle width="30" height="30" as="alternateBounds" />
          </mxGeometry>
        </mxCell>
        <mxCell id="KkAj1kQyP0uN1ew_DBom-41" value="end_datetime | datetime | Not Null" style="shape=partialRectangle;connectable=0;fillColor=none;top=0;left=0;bottom=0;right=0;align=left;spacingLeft=6;overflow=hidden;whiteSpace=wrap;html=1;" vertex="1" parent="KkAj1kQyP0uN1ew_DBom-39">
          <mxGeometry x="30" width="220" height="30" as="geometry">
            <mxRectangle width="220" height="30" as="alternateBounds" />
          </mxGeometry>
        </mxCell>
        <mxCell id="KkAj1kQyP0uN1ew_DBom-246" value="" style="shape=tableRow;horizontal=0;startSize=0;swimlaneHead=0;swimlaneBody=0;fillColor=none;collapsible=0;dropTarget=0;points=[[0,0.5],[1,0.5]];portConstraint=eastwest;top=0;left=0;right=0;bottom=0;" vertex="1" parent="KkAj1kQyP0uN1ew_DBom-1">
          <mxGeometry y="120" width="250" height="30" as="geometry" />
        </mxCell>
        <mxCell id="KkAj1kQyP0uN1ew_DBom-247" value="" style="shape=partialRectangle;connectable=0;fillColor=none;top=0;left=0;bottom=0;right=0;editable=1;overflow=hidden;whiteSpace=wrap;html=1;" vertex="1" parent="KkAj1kQyP0uN1ew_DBom-246">
          <mxGeometry width="30" height="30" as="geometry">
            <mxRectangle width="30" height="30" as="alternateBounds" />
          </mxGeometry>
        </mxCell>
        <mxCell id="KkAj1kQyP0uN1ew_DBom-248" value="status | varchar(15) | Not Null" style="shape=partialRectangle;connectable=0;fillColor=none;top=0;left=0;bottom=0;right=0;align=left;spacingLeft=6;overflow=hidden;whiteSpace=wrap;html=1;" vertex="1" parent="KkAj1kQyP0uN1ew_DBom-246">
          <mxGeometry x="30" width="220" height="30" as="geometry">
            <mxRectangle width="220" height="30" as="alternateBounds" />
          </mxGeometry>
        </mxCell>
        <mxCell id="KkAj1kQyP0uN1ew_DBom-8" value="" style="shape=tableRow;horizontal=0;startSize=0;swimlaneHead=0;swimlaneBody=0;fillColor=none;collapsible=0;dropTarget=0;points=[[0,0.5],[1,0.5]];portConstraint=eastwest;top=0;left=0;right=0;bottom=0;" vertex="1" parent="KkAj1kQyP0uN1ew_DBom-1">
          <mxGeometry y="150" width="250" height="30" as="geometry" />
        </mxCell>
        <mxCell id="KkAj1kQyP0uN1ew_DBom-9" value="" style="shape=partialRectangle;connectable=0;fillColor=none;top=0;left=0;bottom=0;right=0;editable=1;overflow=hidden;whiteSpace=wrap;html=1;" vertex="1" parent="KkAj1kQyP0uN1ew_DBom-8">
          <mxGeometry width="30" height="30" as="geometry">
            <mxRectangle width="30" height="30" as="alternateBounds" />
          </mxGeometry>
        </mxCell>
        <mxCell id="KkAj1kQyP0uN1ew_DBom-10" value="created_at | datetime" style="shape=partialRectangle;connectable=0;fillColor=none;top=0;left=0;bottom=0;right=0;align=left;spacingLeft=6;overflow=hidden;whiteSpace=wrap;html=1;" vertex="1" parent="KkAj1kQyP0uN1ew_DBom-8">
          <mxGeometry x="30" width="220" height="30" as="geometry">
            <mxRectangle width="220" height="30" as="alternateBounds" />
          </mxGeometry>
        </mxCell>
        <mxCell id="KkAj1kQyP0uN1ew_DBom-11" value="" style="shape=tableRow;horizontal=0;startSize=0;swimlaneHead=0;swimlaneBody=0;fillColor=none;collapsible=0;dropTarget=0;points=[[0,0.5],[1,0.5]];portConstraint=eastwest;top=0;left=0;right=0;bottom=0;" vertex="1" parent="KkAj1kQyP0uN1ew_DBom-1">
          <mxGeometry y="180" width="250" height="30" as="geometry" />
        </mxCell>
        <mxCell id="KkAj1kQyP0uN1ew_DBom-12" value="" style="shape=partialRectangle;connectable=0;fillColor=none;top=0;left=0;bottom=0;right=0;editable=1;overflow=hidden;whiteSpace=wrap;html=1;" vertex="1" parent="KkAj1kQyP0uN1ew_DBom-11">
          <mxGeometry width="30" height="30" as="geometry">
            <mxRectangle width="30" height="30" as="alternateBounds" />
          </mxGeometry>
        </mxCell>
        <mxCell id="KkAj1kQyP0uN1ew_DBom-13" value="updated_at | datetime" style="shape=partialRectangle;connectable=0;fillColor=none;top=0;left=0;bottom=0;right=0;align=left;spacingLeft=6;overflow=hidden;whiteSpace=wrap;html=1;" vertex="1" parent="KkAj1kQyP0uN1ew_DBom-11">
          <mxGeometry x="30" width="220" height="30" as="geometry">
            <mxRectangle width="220" height="30" as="alternateBounds" />
          </mxGeometry>
        </mxCell>
        <mxCell id="KkAj1kQyP0uN1ew_DBom-60" value="" style="shape=tableRow;horizontal=0;startSize=0;swimlaneHead=0;swimlaneBody=0;fillColor=none;collapsible=0;dropTarget=0;points=[[0,0.5],[1,0.5]];portConstraint=eastwest;top=0;left=0;right=0;bottom=0;" vertex="1" parent="KkAj1kQyP0uN1ew_DBom-1">
          <mxGeometry y="210" width="250" height="30" as="geometry" />
        </mxCell>
        <mxCell id="KkAj1kQyP0uN1ew_DBom-61" value="FK" style="shape=partialRectangle;connectable=0;fillColor=none;top=0;left=0;bottom=0;right=0;editable=1;overflow=hidden;whiteSpace=wrap;html=1;" vertex="1" parent="KkAj1kQyP0uN1ew_DBom-60">
          <mxGeometry width="30" height="30" as="geometry">
            <mxRectangle width="30" height="30" as="alternateBounds" />
          </mxGeometry>
        </mxCell>
        <mxCell id="KkAj1kQyP0uN1ew_DBom-62" value="customer_id | int | Not Null" style="shape=partialRectangle;connectable=0;fillColor=none;top=0;left=0;bottom=0;right=0;align=left;spacingLeft=6;overflow=hidden;whiteSpace=wrap;html=1;" vertex="1" parent="KkAj1kQyP0uN1ew_DBom-60">
          <mxGeometry x="30" width="220" height="30" as="geometry">
            <mxRectangle width="220" height="30" as="alternateBounds" />
          </mxGeometry>
        </mxCell>
        <mxCell id="KkAj1kQyP0uN1ew_DBom-57" value="" style="shape=tableRow;horizontal=0;startSize=0;swimlaneHead=0;swimlaneBody=0;fillColor=none;collapsible=0;dropTarget=0;points=[[0,0.5],[1,0.5]];portConstraint=eastwest;top=0;left=0;right=0;bottom=0;" vertex="1" parent="KkAj1kQyP0uN1ew_DBom-1">
          <mxGeometry y="240" width="250" height="30" as="geometry" />
        </mxCell>
        <mxCell id="KkAj1kQyP0uN1ew_DBom-58" value="FK" style="shape=partialRectangle;connectable=0;fillColor=none;top=0;left=0;bottom=0;right=0;editable=1;overflow=hidden;whiteSpace=wrap;html=1;" vertex="1" parent="KkAj1kQyP0uN1ew_DBom-57">
          <mxGeometry width="30" height="30" as="geometry">
            <mxRectangle width="30" height="30" as="alternateBounds" />
          </mxGeometry>
        </mxCell>
        <mxCell id="KkAj1kQyP0uN1ew_DBom-59" value="service_provider_id | int | Not Null" style="shape=partialRectangle;connectable=0;fillColor=none;top=0;left=0;bottom=0;right=0;align=left;spacingLeft=6;overflow=hidden;whiteSpace=wrap;html=1;" vertex="1" parent="KkAj1kQyP0uN1ew_DBom-57">
          <mxGeometry x="30" width="220" height="30" as="geometry">
            <mxRectangle width="220" height="30" as="alternateBounds" />
          </mxGeometry>
        </mxCell>
        <mxCell id="KkAj1kQyP0uN1ew_DBom-243" value="" style="shape=tableRow;horizontal=0;startSize=0;swimlaneHead=0;swimlaneBody=0;fillColor=none;collapsible=0;dropTarget=0;points=[[0,0.5],[1,0.5]];portConstraint=eastwest;top=0;left=0;right=0;bottom=0;" vertex="1" parent="KkAj1kQyP0uN1ew_DBom-1">
          <mxGeometry y="270" width="250" height="30" as="geometry" />
        </mxCell>
        <mxCell id="KkAj1kQyP0uN1ew_DBom-244" value="FK" style="shape=partialRectangle;connectable=0;fillColor=none;top=0;left=0;bottom=0;right=0;editable=1;overflow=hidden;whiteSpace=wrap;html=1;" vertex="1" parent="KkAj1kQyP0uN1ew_DBom-243">
          <mxGeometry width="30" height="30" as="geometry">
            <mxRectangle width="30" height="30" as="alternateBounds" />
          </mxGeometry>
        </mxCell>
        <mxCell id="KkAj1kQyP0uN1ew_DBom-245" value="service_id | int | Not Null" style="shape=partialRectangle;connectable=0;fillColor=none;top=0;left=0;bottom=0;right=0;align=left;spacingLeft=6;overflow=hidden;whiteSpace=wrap;html=1;" vertex="1" parent="KkAj1kQyP0uN1ew_DBom-243">
          <mxGeometry x="30" width="220" height="30" as="geometry">
            <mxRectangle width="220" height="30" as="alternateBounds" />
          </mxGeometry>
        </mxCell>
        <mxCell id="KkAj1kQyP0uN1ew_DBom-63" value="customers" style="shape=table;startSize=30;container=1;collapsible=1;childLayout=tableLayout;fixedRows=1;rowLines=0;fontStyle=1;align=center;resizeLast=1;html=1;fillColor=#60a917;fontColor=#ffffff;strokeColor=#2D7600;" vertex="1" parent="1">
          <mxGeometry x="370" y="120" width="230" height="180" as="geometry" />
        </mxCell>
        <mxCell id="KkAj1kQyP0uN1ew_DBom-64" value="" style="shape=tableRow;horizontal=0;startSize=0;swimlaneHead=0;swimlaneBody=0;fillColor=none;collapsible=0;dropTarget=0;points=[[0,0.5],[1,0.5]];portConstraint=eastwest;top=0;left=0;right=0;bottom=1;" vertex="1" parent="KkAj1kQyP0uN1ew_DBom-63">
          <mxGeometry y="30" width="230" height="30" as="geometry" />
        </mxCell>
        <mxCell id="KkAj1kQyP0uN1ew_DBom-65" value="PK" style="shape=partialRectangle;connectable=0;fillColor=none;top=0;left=0;bottom=0;right=0;fontStyle=1;overflow=hidden;whiteSpace=wrap;html=1;" vertex="1" parent="KkAj1kQyP0uN1ew_DBom-64">
          <mxGeometry width="30" height="30" as="geometry">
            <mxRectangle width="30" height="30" as="alternateBounds" />
          </mxGeometry>
        </mxCell>
        <mxCell id="KkAj1kQyP0uN1ew_DBom-66" value="customer_id" style="shape=partialRectangle;connectable=0;fillColor=none;top=0;left=0;bottom=0;right=0;align=left;spacingLeft=6;fontStyle=5;overflow=hidden;whiteSpace=wrap;html=1;" vertex="1" parent="KkAj1kQyP0uN1ew_DBom-64">
          <mxGeometry x="30" width="200" height="30" as="geometry">
            <mxRectangle width="200" height="30" as="alternateBounds" />
          </mxGeometry>
        </mxCell>
        <mxCell id="KkAj1kQyP0uN1ew_DBom-113" value="" style="shape=tableRow;horizontal=0;startSize=0;swimlaneHead=0;swimlaneBody=0;fillColor=none;collapsible=0;dropTarget=0;points=[[0,0.5],[1,0.5]];portConstraint=eastwest;top=0;left=0;right=0;bottom=0;" vertex="1" parent="KkAj1kQyP0uN1ew_DBom-63">
          <mxGeometry y="60" width="230" height="30" as="geometry" />
        </mxCell>
        <mxCell id="KkAj1kQyP0uN1ew_DBom-114" value="" style="shape=partialRectangle;connectable=0;fillColor=none;top=0;left=0;bottom=0;right=0;editable=1;overflow=hidden;whiteSpace=wrap;html=1;" vertex="1" parent="KkAj1kQyP0uN1ew_DBom-113">
          <mxGeometry width="30" height="30" as="geometry">
            <mxRectangle width="30" height="30" as="alternateBounds" />
          </mxGeometry>
        </mxCell>
        <mxCell id="KkAj1kQyP0uN1ew_DBom-115" value="cpf | varchar(11) | Not Null" style="shape=partialRectangle;connectable=0;fillColor=none;top=0;left=0;bottom=0;right=0;align=left;spacingLeft=6;overflow=hidden;whiteSpace=wrap;html=1;" vertex="1" parent="KkAj1kQyP0uN1ew_DBom-113">
          <mxGeometry x="30" width="200" height="30" as="geometry">
            <mxRectangle width="200" height="30" as="alternateBounds" />
          </mxGeometry>
        </mxCell>
        <mxCell id="KkAj1kQyP0uN1ew_DBom-82" value="" style="shape=tableRow;horizontal=0;startSize=0;swimlaneHead=0;swimlaneBody=0;fillColor=none;collapsible=0;dropTarget=0;points=[[0,0.5],[1,0.5]];portConstraint=eastwest;top=0;left=0;right=0;bottom=0;" vertex="1" parent="KkAj1kQyP0uN1ew_DBom-63">
          <mxGeometry y="90" width="230" height="30" as="geometry" />
        </mxCell>
        <mxCell id="KkAj1kQyP0uN1ew_DBom-83" value="" style="shape=partialRectangle;connectable=0;fillColor=none;top=0;left=0;bottom=0;right=0;editable=1;overflow=hidden;whiteSpace=wrap;html=1;" vertex="1" parent="KkAj1kQyP0uN1ew_DBom-82">
          <mxGeometry width="30" height="30" as="geometry">
            <mxRectangle width="30" height="30" as="alternateBounds" />
          </mxGeometry>
        </mxCell>
        <mxCell id="KkAj1kQyP0uN1ew_DBom-84" value="created_at | datetime" style="shape=partialRectangle;connectable=0;fillColor=none;top=0;left=0;bottom=0;right=0;align=left;spacingLeft=6;overflow=hidden;whiteSpace=wrap;html=1;" vertex="1" parent="KkAj1kQyP0uN1ew_DBom-82">
          <mxGeometry x="30" width="200" height="30" as="geometry">
            <mxRectangle width="200" height="30" as="alternateBounds" />
          </mxGeometry>
        </mxCell>
        <mxCell id="KkAj1kQyP0uN1ew_DBom-228" value="" style="shape=tableRow;horizontal=0;startSize=0;swimlaneHead=0;swimlaneBody=0;fillColor=none;collapsible=0;dropTarget=0;points=[[0,0.5],[1,0.5]];portConstraint=eastwest;top=0;left=0;right=0;bottom=0;" vertex="1" parent="KkAj1kQyP0uN1ew_DBom-63">
          <mxGeometry y="120" width="230" height="30" as="geometry" />
        </mxCell>
        <mxCell id="KkAj1kQyP0uN1ew_DBom-229" value="" style="shape=partialRectangle;connectable=0;fillColor=none;top=0;left=0;bottom=0;right=0;editable=1;overflow=hidden;whiteSpace=wrap;html=1;" vertex="1" parent="KkAj1kQyP0uN1ew_DBom-228">
          <mxGeometry width="30" height="30" as="geometry">
            <mxRectangle width="30" height="30" as="alternateBounds" />
          </mxGeometry>
        </mxCell>
        <mxCell id="KkAj1kQyP0uN1ew_DBom-230" value="updated_at | datetime" style="shape=partialRectangle;connectable=0;fillColor=none;top=0;left=0;bottom=0;right=0;align=left;spacingLeft=6;overflow=hidden;whiteSpace=wrap;html=1;" vertex="1" parent="KkAj1kQyP0uN1ew_DBom-228">
          <mxGeometry x="30" width="200" height="30" as="geometry">
            <mxRectangle width="200" height="30" as="alternateBounds" />
          </mxGeometry>
        </mxCell>
        <mxCell id="KkAj1kQyP0uN1ew_DBom-94" value="" style="shape=tableRow;horizontal=0;startSize=0;swimlaneHead=0;swimlaneBody=0;fillColor=none;collapsible=0;dropTarget=0;points=[[0,0.5],[1,0.5]];portConstraint=eastwest;top=0;left=0;right=0;bottom=0;" vertex="1" parent="KkAj1kQyP0uN1ew_DBom-63">
          <mxGeometry y="150" width="230" height="30" as="geometry" />
        </mxCell>
        <mxCell id="KkAj1kQyP0uN1ew_DBom-95" value="FK" style="shape=partialRectangle;connectable=0;fillColor=none;top=0;left=0;bottom=0;right=0;editable=1;overflow=hidden;whiteSpace=wrap;html=1;" vertex="1" parent="KkAj1kQyP0uN1ew_DBom-94">
          <mxGeometry width="30" height="30" as="geometry">
            <mxRectangle width="30" height="30" as="alternateBounds" />
          </mxGeometry>
        </mxCell>
        <mxCell id="KkAj1kQyP0uN1ew_DBom-96" value="user_id" style="shape=partialRectangle;connectable=0;fillColor=none;top=0;left=0;bottom=0;right=0;align=left;spacingLeft=6;overflow=hidden;whiteSpace=wrap;html=1;" vertex="1" parent="KkAj1kQyP0uN1ew_DBom-94">
          <mxGeometry x="30" width="200" height="30" as="geometry">
            <mxRectangle width="200" height="30" as="alternateBounds" />
          </mxGeometry>
        </mxCell>
        <mxCell id="KkAj1kQyP0uN1ew_DBom-97" value="service_providers" style="shape=table;startSize=30;container=1;collapsible=1;childLayout=tableLayout;fixedRows=1;rowLines=0;fontStyle=1;align=center;resizeLast=1;html=1;fillColor=#1ba1e2;fontColor=#ffffff;strokeColor=#006EAF;" vertex="1" parent="1">
          <mxGeometry x="380" y="380" width="230" height="180" as="geometry" />
        </mxCell>
        <mxCell id="KkAj1kQyP0uN1ew_DBom-98" value="" style="shape=tableRow;horizontal=0;startSize=0;swimlaneHead=0;swimlaneBody=0;fillColor=none;collapsible=0;dropTarget=0;points=[[0,0.5],[1,0.5]];portConstraint=eastwest;top=0;left=0;right=0;bottom=1;" vertex="1" parent="KkAj1kQyP0uN1ew_DBom-97">
          <mxGeometry y="30" width="230" height="30" as="geometry" />
        </mxCell>
        <mxCell id="KkAj1kQyP0uN1ew_DBom-99" value="PK" style="shape=partialRectangle;connectable=0;fillColor=none;top=0;left=0;bottom=0;right=0;fontStyle=1;overflow=hidden;whiteSpace=wrap;html=1;" vertex="1" parent="KkAj1kQyP0uN1ew_DBom-98">
          <mxGeometry width="30" height="30" as="geometry">
            <mxRectangle width="30" height="30" as="alternateBounds" />
          </mxGeometry>
        </mxCell>
        <mxCell id="KkAj1kQyP0uN1ew_DBom-100" value="service_provider_id" style="shape=partialRectangle;connectable=0;fillColor=none;top=0;left=0;bottom=0;right=0;align=left;spacingLeft=6;fontStyle=5;overflow=hidden;whiteSpace=wrap;html=1;" vertex="1" parent="KkAj1kQyP0uN1ew_DBom-98">
          <mxGeometry x="30" width="200" height="30" as="geometry">
            <mxRectangle width="200" height="30" as="alternateBounds" />
          </mxGeometry>
        </mxCell>
        <mxCell id="KkAj1kQyP0uN1ew_DBom-234" value="" style="shape=tableRow;horizontal=0;startSize=0;swimlaneHead=0;swimlaneBody=0;fillColor=none;collapsible=0;dropTarget=0;points=[[0,0.5],[1,0.5]];portConstraint=eastwest;top=0;left=0;right=0;bottom=0;" vertex="1" parent="KkAj1kQyP0uN1ew_DBom-97">
          <mxGeometry y="60" width="230" height="30" as="geometry" />
        </mxCell>
        <mxCell id="KkAj1kQyP0uN1ew_DBom-235" value="" style="shape=partialRectangle;connectable=0;fillColor=none;top=0;left=0;bottom=0;right=0;editable=1;overflow=hidden;whiteSpace=wrap;html=1;" vertex="1" parent="KkAj1kQyP0uN1ew_DBom-234">
          <mxGeometry width="30" height="30" as="geometry">
            <mxRectangle width="30" height="30" as="alternateBounds" />
          </mxGeometry>
        </mxCell>
        <mxCell id="KkAj1kQyP0uN1ew_DBom-236" value="cnpj | varchar(14) | Not Null" style="shape=partialRectangle;connectable=0;fillColor=none;top=0;left=0;bottom=0;right=0;align=left;spacingLeft=6;overflow=hidden;whiteSpace=wrap;html=1;" vertex="1" parent="KkAj1kQyP0uN1ew_DBom-234">
          <mxGeometry x="30" width="200" height="30" as="geometry">
            <mxRectangle width="200" height="30" as="alternateBounds" />
          </mxGeometry>
        </mxCell>
        <mxCell id="KkAj1kQyP0uN1ew_DBom-101" value="" style="shape=tableRow;horizontal=0;startSize=0;swimlaneHead=0;swimlaneBody=0;fillColor=none;collapsible=0;dropTarget=0;points=[[0,0.5],[1,0.5]];portConstraint=eastwest;top=0;left=0;right=0;bottom=0;" vertex="1" parent="KkAj1kQyP0uN1ew_DBom-97">
          <mxGeometry y="90" width="230" height="30" as="geometry" />
        </mxCell>
        <mxCell id="KkAj1kQyP0uN1ew_DBom-102" value="" style="shape=partialRectangle;connectable=0;fillColor=none;top=0;left=0;bottom=0;right=0;editable=1;overflow=hidden;whiteSpace=wrap;html=1;" vertex="1" parent="KkAj1kQyP0uN1ew_DBom-101">
          <mxGeometry width="30" height="30" as="geometry">
            <mxRectangle width="30" height="30" as="alternateBounds" />
          </mxGeometry>
        </mxCell>
        <mxCell id="KkAj1kQyP0uN1ew_DBom-103" value="created_at | datetime" style="shape=partialRectangle;connectable=0;fillColor=none;top=0;left=0;bottom=0;right=0;align=left;spacingLeft=6;overflow=hidden;whiteSpace=wrap;html=1;" vertex="1" parent="KkAj1kQyP0uN1ew_DBom-101">
          <mxGeometry x="30" width="200" height="30" as="geometry">
            <mxRectangle width="200" height="30" as="alternateBounds" />
          </mxGeometry>
        </mxCell>
        <mxCell id="KkAj1kQyP0uN1ew_DBom-231" value="" style="shape=tableRow;horizontal=0;startSize=0;swimlaneHead=0;swimlaneBody=0;fillColor=none;collapsible=0;dropTarget=0;points=[[0,0.5],[1,0.5]];portConstraint=eastwest;top=0;left=0;right=0;bottom=0;" vertex="1" parent="KkAj1kQyP0uN1ew_DBom-97">
          <mxGeometry y="120" width="230" height="30" as="geometry" />
        </mxCell>
        <mxCell id="KkAj1kQyP0uN1ew_DBom-232" value="" style="shape=partialRectangle;connectable=0;fillColor=none;top=0;left=0;bottom=0;right=0;editable=1;overflow=hidden;whiteSpace=wrap;html=1;" vertex="1" parent="KkAj1kQyP0uN1ew_DBom-231">
          <mxGeometry width="30" height="30" as="geometry">
            <mxRectangle width="30" height="30" as="alternateBounds" />
          </mxGeometry>
        </mxCell>
        <mxCell id="KkAj1kQyP0uN1ew_DBom-233" value="updated_at | datetime" style="shape=partialRectangle;connectable=0;fillColor=none;top=0;left=0;bottom=0;right=0;align=left;spacingLeft=6;overflow=hidden;whiteSpace=wrap;html=1;" vertex="1" parent="KkAj1kQyP0uN1ew_DBom-231">
          <mxGeometry x="30" width="200" height="30" as="geometry">
            <mxRectangle width="200" height="30" as="alternateBounds" />
          </mxGeometry>
        </mxCell>
        <mxCell id="KkAj1kQyP0uN1ew_DBom-107" value="" style="shape=tableRow;horizontal=0;startSize=0;swimlaneHead=0;swimlaneBody=0;fillColor=none;collapsible=0;dropTarget=0;points=[[0,0.5],[1,0.5]];portConstraint=eastwest;top=0;left=0;right=0;bottom=0;" vertex="1" parent="KkAj1kQyP0uN1ew_DBom-97">
          <mxGeometry y="150" width="230" height="30" as="geometry" />
        </mxCell>
        <mxCell id="KkAj1kQyP0uN1ew_DBom-108" value="FK" style="shape=partialRectangle;connectable=0;fillColor=none;top=0;left=0;bottom=0;right=0;editable=1;overflow=hidden;whiteSpace=wrap;html=1;" vertex="1" parent="KkAj1kQyP0uN1ew_DBom-107">
          <mxGeometry width="30" height="30" as="geometry">
            <mxRectangle width="30" height="30" as="alternateBounds" />
          </mxGeometry>
        </mxCell>
        <mxCell id="KkAj1kQyP0uN1ew_DBom-109" value="user_id" style="shape=partialRectangle;connectable=0;fillColor=none;top=0;left=0;bottom=0;right=0;align=left;spacingLeft=6;overflow=hidden;whiteSpace=wrap;html=1;" vertex="1" parent="KkAj1kQyP0uN1ew_DBom-107">
          <mxGeometry x="30" width="200" height="30" as="geometry">
            <mxRectangle width="200" height="30" as="alternateBounds" />
          </mxGeometry>
        </mxCell>
        <mxCell id="KkAj1kQyP0uN1ew_DBom-119" value="" style="edgeStyle=entityRelationEdgeStyle;fontSize=12;html=1;endArrow=ERmandOne;startArrow=ERmandOne;rounded=0;fillColor=#60a917;strokeColor=#2D7600;" edge="1" parent="1" source="9P2hpkJDDSAmae0XuFdl-1" target="KkAj1kQyP0uN1ew_DBom-94">
          <mxGeometry width="100" height="100" relative="1" as="geometry">
            <mxPoint x="290" y="440" as="sourcePoint" />
            <mxPoint x="370" y="365" as="targetPoint" />
          </mxGeometry>
        </mxCell>
        <mxCell id="KkAj1kQyP0uN1ew_DBom-120" value="" style="edgeStyle=entityRelationEdgeStyle;fontSize=12;html=1;endArrow=ERmandOne;startArrow=ERmandOne;rounded=0;exitX=1;exitY=0.5;exitDx=0;exitDy=0;fillColor=#1ba1e2;strokeColor=#006EAF;" edge="1" parent="1" target="KkAj1kQyP0uN1ew_DBom-107">
          <mxGeometry width="100" height="100" relative="1" as="geometry">
            <mxPoint x="260" y="375" as="sourcePoint" />
            <mxPoint x="380" y="505" as="targetPoint" />
          </mxGeometry>
        </mxCell>
        <mxCell id="KkAj1kQyP0uN1ew_DBom-146" value="&lt;p data-pm-slice=&quot;0 0 []&quot;&gt;addresses&amp;nbsp;&lt;/p&gt;" style="shape=table;startSize=30;container=1;collapsible=1;childLayout=tableLayout;fixedRows=1;rowLines=0;fontStyle=1;align=center;resizeLast=1;html=1;" vertex="1" parent="1">
          <mxGeometry x="-380" y="120" width="280" height="390" as="geometry" />
        </mxCell>
        <mxCell id="KkAj1kQyP0uN1ew_DBom-147" value="" style="shape=tableRow;horizontal=0;startSize=0;swimlaneHead=0;swimlaneBody=0;fillColor=none;collapsible=0;dropTarget=0;points=[[0,0.5],[1,0.5]];portConstraint=eastwest;top=0;left=0;right=0;bottom=1;" vertex="1" parent="KkAj1kQyP0uN1ew_DBom-146">
          <mxGeometry y="30" width="280" height="30" as="geometry" />
        </mxCell>
        <mxCell id="KkAj1kQyP0uN1ew_DBom-148" value="PK" style="shape=partialRectangle;connectable=0;fillColor=none;top=0;left=0;bottom=0;right=0;fontStyle=1;overflow=hidden;whiteSpace=wrap;html=1;" vertex="1" parent="KkAj1kQyP0uN1ew_DBom-147">
          <mxGeometry width="30" height="30" as="geometry">
            <mxRectangle width="30" height="30" as="alternateBounds" />
          </mxGeometry>
        </mxCell>
        <mxCell id="KkAj1kQyP0uN1ew_DBom-149" value="address_id" style="shape=partialRectangle;connectable=0;fillColor=none;top=0;left=0;bottom=0;right=0;align=left;spacingLeft=6;fontStyle=5;overflow=hidden;whiteSpace=wrap;html=1;" vertex="1" parent="KkAj1kQyP0uN1ew_DBom-147">
          <mxGeometry x="30" width="250" height="30" as="geometry">
            <mxRectangle width="250" height="30" as="alternateBounds" />
          </mxGeometry>
        </mxCell>
        <mxCell id="KkAj1kQyP0uN1ew_DBom-150" value="" style="shape=tableRow;horizontal=0;startSize=0;swimlaneHead=0;swimlaneBody=0;fillColor=none;collapsible=0;dropTarget=0;points=[[0,0.5],[1,0.5]];portConstraint=eastwest;top=0;left=0;right=0;bottom=0;" vertex="1" parent="KkAj1kQyP0uN1ew_DBom-146">
          <mxGeometry y="60" width="280" height="30" as="geometry" />
        </mxCell>
        <mxCell id="KkAj1kQyP0uN1ew_DBom-151" value="" style="shape=partialRectangle;connectable=0;fillColor=none;top=0;left=0;bottom=0;right=0;editable=1;overflow=hidden;whiteSpace=wrap;html=1;" vertex="1" parent="KkAj1kQyP0uN1ew_DBom-150">
          <mxGeometry width="30" height="30" as="geometry">
            <mxRectangle width="30" height="30" as="alternateBounds" />
          </mxGeometry>
        </mxCell>
        <mxCell id="KkAj1kQyP0uN1ew_DBom-152" value="country | varchar(100) | Not Null" style="shape=partialRectangle;connectable=0;fillColor=none;top=0;left=0;bottom=0;right=0;align=left;spacingLeft=6;overflow=hidden;whiteSpace=wrap;html=1;" vertex="1" parent="KkAj1kQyP0uN1ew_DBom-150">
          <mxGeometry x="30" width="250" height="30" as="geometry">
            <mxRectangle width="250" height="30" as="alternateBounds" />
          </mxGeometry>
        </mxCell>
        <mxCell id="KkAj1kQyP0uN1ew_DBom-153" value="" style="shape=tableRow;horizontal=0;startSize=0;swimlaneHead=0;swimlaneBody=0;fillColor=none;collapsible=0;dropTarget=0;points=[[0,0.5],[1,0.5]];portConstraint=eastwest;top=0;left=0;right=0;bottom=0;" vertex="1" parent="KkAj1kQyP0uN1ew_DBom-146">
          <mxGeometry y="90" width="280" height="30" as="geometry" />
        </mxCell>
        <mxCell id="KkAj1kQyP0uN1ew_DBom-154" value="" style="shape=partialRectangle;connectable=0;fillColor=none;top=0;left=0;bottom=0;right=0;editable=1;overflow=hidden;whiteSpace=wrap;html=1;" vertex="1" parent="KkAj1kQyP0uN1ew_DBom-153">
          <mxGeometry width="30" height="30" as="geometry">
            <mxRectangle width="30" height="30" as="alternateBounds" />
          </mxGeometry>
        </mxCell>
        <mxCell id="KkAj1kQyP0uN1ew_DBom-155" value="state | varchar(100) | Not Null" style="shape=partialRectangle;connectable=0;fillColor=none;top=0;left=0;bottom=0;right=0;align=left;spacingLeft=6;overflow=hidden;whiteSpace=wrap;html=1;" vertex="1" parent="KkAj1kQyP0uN1ew_DBom-153">
          <mxGeometry x="30" width="250" height="30" as="geometry">
            <mxRectangle width="250" height="30" as="alternateBounds" />
          </mxGeometry>
        </mxCell>
        <mxCell id="KkAj1kQyP0uN1ew_DBom-156" value="" style="shape=tableRow;horizontal=0;startSize=0;swimlaneHead=0;swimlaneBody=0;fillColor=none;collapsible=0;dropTarget=0;points=[[0,0.5],[1,0.5]];portConstraint=eastwest;top=0;left=0;right=0;bottom=0;" vertex="1" parent="KkAj1kQyP0uN1ew_DBom-146">
          <mxGeometry y="120" width="280" height="30" as="geometry" />
        </mxCell>
        <mxCell id="KkAj1kQyP0uN1ew_DBom-157" value="" style="shape=partialRectangle;connectable=0;fillColor=none;top=0;left=0;bottom=0;right=0;editable=1;overflow=hidden;whiteSpace=wrap;html=1;" vertex="1" parent="KkAj1kQyP0uN1ew_DBom-156">
          <mxGeometry width="30" height="30" as="geometry">
            <mxRectangle width="30" height="30" as="alternateBounds" />
          </mxGeometry>
        </mxCell>
        <mxCell id="KkAj1kQyP0uN1ew_DBom-158" value="city | varchar(150) | Not Null" style="shape=partialRectangle;connectable=0;fillColor=none;top=0;left=0;bottom=0;right=0;align=left;spacingLeft=6;overflow=hidden;whiteSpace=wrap;html=1;" vertex="1" parent="KkAj1kQyP0uN1ew_DBom-156">
          <mxGeometry x="30" width="250" height="30" as="geometry">
            <mxRectangle width="250" height="30" as="alternateBounds" />
          </mxGeometry>
        </mxCell>
        <mxCell id="KkAj1kQyP0uN1ew_DBom-159" value="" style="shape=tableRow;horizontal=0;startSize=0;swimlaneHead=0;swimlaneBody=0;fillColor=none;collapsible=0;dropTarget=0;points=[[0,0.5],[1,0.5]];portConstraint=eastwest;top=0;left=0;right=0;bottom=0;" vertex="1" parent="KkAj1kQyP0uN1ew_DBom-146">
          <mxGeometry y="150" width="280" height="30" as="geometry" />
        </mxCell>
        <mxCell id="KkAj1kQyP0uN1ew_DBom-160" value="" style="shape=partialRectangle;connectable=0;fillColor=none;top=0;left=0;bottom=0;right=0;editable=1;overflow=hidden;whiteSpace=wrap;html=1;" vertex="1" parent="KkAj1kQyP0uN1ew_DBom-159">
          <mxGeometry width="30" height="30" as="geometry">
            <mxRectangle width="30" height="30" as="alternateBounds" />
          </mxGeometry>
        </mxCell>
        <mxCell id="KkAj1kQyP0uN1ew_DBom-161" value="street | varchar(200) | Not Null" style="shape=partialRectangle;connectable=0;fillColor=none;top=0;left=0;bottom=0;right=0;align=left;spacingLeft=6;overflow=hidden;whiteSpace=wrap;html=1;" vertex="1" parent="KkAj1kQyP0uN1ew_DBom-159">
          <mxGeometry x="30" width="250" height="30" as="geometry">
            <mxRectangle width="250" height="30" as="alternateBounds" />
          </mxGeometry>
        </mxCell>
        <mxCell id="KkAj1kQyP0uN1ew_DBom-162" value="" style="shape=tableRow;horizontal=0;startSize=0;swimlaneHead=0;swimlaneBody=0;fillColor=none;collapsible=0;dropTarget=0;points=[[0,0.5],[1,0.5]];portConstraint=eastwest;top=0;left=0;right=0;bottom=0;" vertex="1" parent="KkAj1kQyP0uN1ew_DBom-146">
          <mxGeometry y="180" width="280" height="30" as="geometry" />
        </mxCell>
        <mxCell id="KkAj1kQyP0uN1ew_DBom-163" value="" style="shape=partialRectangle;connectable=0;fillColor=none;top=0;left=0;bottom=0;right=0;editable=1;overflow=hidden;whiteSpace=wrap;html=1;" vertex="1" parent="KkAj1kQyP0uN1ew_DBom-162">
          <mxGeometry width="30" height="30" as="geometry">
            <mxRectangle width="30" height="30" as="alternateBounds" />
          </mxGeometry>
        </mxCell>
        <mxCell id="KkAj1kQyP0uN1ew_DBom-164" value="number | int" style="shape=partialRectangle;connectable=0;fillColor=none;top=0;left=0;bottom=0;right=0;align=left;spacingLeft=6;overflow=hidden;whiteSpace=wrap;html=1;" vertex="1" parent="KkAj1kQyP0uN1ew_DBom-162">
          <mxGeometry x="30" width="250" height="30" as="geometry">
            <mxRectangle width="250" height="30" as="alternateBounds" />
          </mxGeometry>
        </mxCell>
        <mxCell id="KkAj1kQyP0uN1ew_DBom-165" value="" style="shape=tableRow;horizontal=0;startSize=0;swimlaneHead=0;swimlaneBody=0;fillColor=none;collapsible=0;dropTarget=0;points=[[0,0.5],[1,0.5]];portConstraint=eastwest;top=0;left=0;right=0;bottom=0;" vertex="1" parent="KkAj1kQyP0uN1ew_DBom-146">
          <mxGeometry y="210" width="280" height="30" as="geometry" />
        </mxCell>
        <mxCell id="KkAj1kQyP0uN1ew_DBom-166" value="" style="shape=partialRectangle;connectable=0;fillColor=none;top=0;left=0;bottom=0;right=0;editable=1;overflow=hidden;whiteSpace=wrap;html=1;" vertex="1" parent="KkAj1kQyP0uN1ew_DBom-165">
          <mxGeometry width="30" height="30" as="geometry">
            <mxRectangle width="30" height="30" as="alternateBounds" />
          </mxGeometry>
        </mxCell>
        <mxCell id="KkAj1kQyP0uN1ew_DBom-167" value="zipcode | varchar(25) | Not Null" style="shape=partialRectangle;connectable=0;fillColor=none;top=0;left=0;bottom=0;right=0;align=left;spacingLeft=6;overflow=hidden;whiteSpace=wrap;html=1;" vertex="1" parent="KkAj1kQyP0uN1ew_DBom-165">
          <mxGeometry x="30" width="250" height="30" as="geometry">
            <mxRectangle width="250" height="30" as="alternateBounds" />
          </mxGeometry>
        </mxCell>
        <mxCell id="KkAj1kQyP0uN1ew_DBom-168" value="" style="shape=tableRow;horizontal=0;startSize=0;swimlaneHead=0;swimlaneBody=0;fillColor=none;collapsible=0;dropTarget=0;points=[[0,0.5],[1,0.5]];portConstraint=eastwest;top=0;left=0;right=0;bottom=0;" vertex="1" parent="KkAj1kQyP0uN1ew_DBom-146">
          <mxGeometry y="240" width="280" height="30" as="geometry" />
        </mxCell>
        <mxCell id="KkAj1kQyP0uN1ew_DBom-169" value="" style="shape=partialRectangle;connectable=0;fillColor=none;top=0;left=0;bottom=0;right=0;editable=1;overflow=hidden;whiteSpace=wrap;html=1;" vertex="1" parent="KkAj1kQyP0uN1ew_DBom-168">
          <mxGeometry width="30" height="30" as="geometry">
            <mxRectangle width="30" height="30" as="alternateBounds" />
          </mxGeometry>
        </mxCell>
        <mxCell id="KkAj1kQyP0uN1ew_DBom-170" value="reference_point | varchar(100)" style="shape=partialRectangle;connectable=0;fillColor=none;top=0;left=0;bottom=0;right=0;align=left;spacingLeft=6;overflow=hidden;whiteSpace=wrap;html=1;" vertex="1" parent="KkAj1kQyP0uN1ew_DBom-168">
          <mxGeometry x="30" width="250" height="30" as="geometry">
            <mxRectangle width="250" height="30" as="alternateBounds" />
          </mxGeometry>
        </mxCell>
        <mxCell id="KkAj1kQyP0uN1ew_DBom-382" value="" style="shape=tableRow;horizontal=0;startSize=0;swimlaneHead=0;swimlaneBody=0;fillColor=none;collapsible=0;dropTarget=0;points=[[0,0.5],[1,0.5]];portConstraint=eastwest;top=0;left=0;right=0;bottom=0;" vertex="1" parent="KkAj1kQyP0uN1ew_DBom-146">
          <mxGeometry y="270" width="280" height="30" as="geometry" />
        </mxCell>
        <mxCell id="KkAj1kQyP0uN1ew_DBom-383" value="" style="shape=partialRectangle;connectable=0;fillColor=none;top=0;left=0;bottom=0;right=0;editable=1;overflow=hidden;whiteSpace=wrap;html=1;" vertex="1" parent="KkAj1kQyP0uN1ew_DBom-382">
          <mxGeometry width="30" height="30" as="geometry">
            <mxRectangle width="30" height="30" as="alternateBounds" />
          </mxGeometry>
        </mxCell>
        <mxCell id="KkAj1kQyP0uN1ew_DBom-384" value="complement | varchar(100)" style="shape=partialRectangle;connectable=0;fillColor=none;top=0;left=0;bottom=0;right=0;align=left;spacingLeft=6;overflow=hidden;whiteSpace=wrap;html=1;" vertex="1" parent="KkAj1kQyP0uN1ew_DBom-382">
          <mxGeometry x="30" width="250" height="30" as="geometry">
            <mxRectangle width="250" height="30" as="alternateBounds" />
          </mxGeometry>
        </mxCell>
        <mxCell id="KkAj1kQyP0uN1ew_DBom-171" value="" style="shape=tableRow;horizontal=0;startSize=0;swimlaneHead=0;swimlaneBody=0;fillColor=none;collapsible=0;dropTarget=0;points=[[0,0.5],[1,0.5]];portConstraint=eastwest;top=0;left=0;right=0;bottom=0;" vertex="1" parent="KkAj1kQyP0uN1ew_DBom-146">
          <mxGeometry y="300" width="280" height="30" as="geometry" />
        </mxCell>
        <mxCell id="KkAj1kQyP0uN1ew_DBom-172" value="" style="shape=partialRectangle;connectable=0;fillColor=none;top=0;left=0;bottom=0;right=0;editable=1;overflow=hidden;whiteSpace=wrap;html=1;" vertex="1" parent="KkAj1kQyP0uN1ew_DBom-171">
          <mxGeometry width="30" height="30" as="geometry">
            <mxRectangle width="30" height="30" as="alternateBounds" />
          </mxGeometry>
        </mxCell>
        <mxCell id="KkAj1kQyP0uN1ew_DBom-173" value="latitude | varchar(100)" style="shape=partialRectangle;connectable=0;fillColor=none;top=0;left=0;bottom=0;right=0;align=left;spacingLeft=6;overflow=hidden;whiteSpace=wrap;html=1;" vertex="1" parent="KkAj1kQyP0uN1ew_DBom-171">
          <mxGeometry x="30" width="250" height="30" as="geometry">
            <mxRectangle width="250" height="30" as="alternateBounds" />
          </mxGeometry>
        </mxCell>
        <mxCell id="KkAj1kQyP0uN1ew_DBom-385" value="" style="shape=tableRow;horizontal=0;startSize=0;swimlaneHead=0;swimlaneBody=0;fillColor=none;collapsible=0;dropTarget=0;points=[[0,0.5],[1,0.5]];portConstraint=eastwest;top=0;left=0;right=0;bottom=0;" vertex="1" parent="KkAj1kQyP0uN1ew_DBom-146">
          <mxGeometry y="330" width="280" height="30" as="geometry" />
        </mxCell>
        <mxCell id="KkAj1kQyP0uN1ew_DBom-386" value="" style="shape=partialRectangle;connectable=0;fillColor=none;top=0;left=0;bottom=0;right=0;editable=1;overflow=hidden;whiteSpace=wrap;html=1;" vertex="1" parent="KkAj1kQyP0uN1ew_DBom-385">
          <mxGeometry width="30" height="30" as="geometry">
            <mxRectangle width="30" height="30" as="alternateBounds" />
          </mxGeometry>
        </mxCell>
        <mxCell id="KkAj1kQyP0uN1ew_DBom-387" value="longitude | varchar(100)" style="shape=partialRectangle;connectable=0;fillColor=none;top=0;left=0;bottom=0;right=0;align=left;spacingLeft=6;overflow=hidden;whiteSpace=wrap;html=1;" vertex="1" parent="KkAj1kQyP0uN1ew_DBom-385">
          <mxGeometry x="30" width="250" height="30" as="geometry">
            <mxRectangle width="250" height="30" as="alternateBounds" />
          </mxGeometry>
        </mxCell>
        <mxCell id="KkAj1kQyP0uN1ew_DBom-178" value="" style="shape=tableRow;horizontal=0;startSize=0;swimlaneHead=0;swimlaneBody=0;fillColor=none;collapsible=0;dropTarget=0;points=[[0,0.5],[1,0.5]];portConstraint=eastwest;top=0;left=0;right=0;bottom=0;" vertex="1" parent="KkAj1kQyP0uN1ew_DBom-146">
          <mxGeometry y="360" width="280" height="30" as="geometry" />
        </mxCell>
        <mxCell id="KkAj1kQyP0uN1ew_DBom-179" value="FK" style="shape=partialRectangle;connectable=0;fillColor=none;top=0;left=0;bottom=0;right=0;editable=1;overflow=hidden;whiteSpace=wrap;html=1;" vertex="1" parent="KkAj1kQyP0uN1ew_DBom-178">
          <mxGeometry width="30" height="30" as="geometry">
            <mxRectangle width="30" height="30" as="alternateBounds" />
          </mxGeometry>
        </mxCell>
        <mxCell id="KkAj1kQyP0uN1ew_DBom-180" value="user_id | int" style="shape=partialRectangle;connectable=0;fillColor=none;top=0;left=0;bottom=0;right=0;align=left;spacingLeft=6;overflow=hidden;whiteSpace=wrap;html=1;" vertex="1" parent="KkAj1kQyP0uN1ew_DBom-178">
          <mxGeometry x="30" width="250" height="30" as="geometry">
            <mxRectangle width="250" height="30" as="alternateBounds" />
          </mxGeometry>
        </mxCell>
        <mxCell id="KkAj1kQyP0uN1ew_DBom-174" value="" style="edgeStyle=entityRelationEdgeStyle;fontSize=12;html=1;endArrow=ERoneToMany;rounded=0;" edge="1" parent="1" source="9P2hpkJDDSAmae0XuFdl-2" target="KkAj1kQyP0uN1ew_DBom-178">
          <mxGeometry width="100" height="100" relative="1" as="geometry">
            <mxPoint x="50" y="450" as="sourcePoint" />
            <mxPoint x="150" y="350" as="targetPoint" />
          </mxGeometry>
        </mxCell>
        <mxCell id="KkAj1kQyP0uN1ew_DBom-181" value="" style="edgeStyle=entityRelationEdgeStyle;fontSize=12;html=1;endArrow=ERoneToMany;rounded=0;" edge="1" parent="1" source="9P2hpkJDDSAmae0XuFdl-58" target="9P2hpkJDDSAmae0XuFdl-62">
          <mxGeometry width="100" height="100" relative="1" as="geometry">
            <mxPoint x="780" y="1000" as="sourcePoint" />
            <mxPoint x="1080" y="840" as="targetPoint" />
          </mxGeometry>
        </mxCell>
        <mxCell id="KkAj1kQyP0uN1ew_DBom-182" value="" style="edgeStyle=entityRelationEdgeStyle;fontSize=12;html=1;endArrow=ERoneToMany;rounded=0;fillColor=#1ba1e2;strokeColor=#006EAF;" edge="1" parent="1" source="9P2hpkJDDSAmae0XuFdl-42" target="KkAj1kQyP0uN1ew_DBom-97">
          <mxGeometry width="100" height="100" relative="1" as="geometry">
            <mxPoint x="250" y="510" as="sourcePoint" />
            <mxPoint x="430" y="380" as="targetPoint" />
          </mxGeometry>
        </mxCell>
        <mxCell id="KkAj1kQyP0uN1ew_DBom-189" value="reviews" style="shape=table;startSize=30;container=1;collapsible=1;childLayout=tableLayout;fixedRows=1;rowLines=0;fontStyle=1;align=center;resizeLast=1;html=1;" vertex="1" parent="1">
          <mxGeometry x="700" y="115" width="250" height="240" as="geometry" />
        </mxCell>
        <mxCell id="KkAj1kQyP0uN1ew_DBom-190" value="" style="shape=tableRow;horizontal=0;startSize=0;swimlaneHead=0;swimlaneBody=0;fillColor=none;collapsible=0;dropTarget=0;points=[[0,0.5],[1,0.5]];portConstraint=eastwest;top=0;left=0;right=0;bottom=1;" vertex="1" parent="KkAj1kQyP0uN1ew_DBom-189">
          <mxGeometry y="30" width="250" height="30" as="geometry" />
        </mxCell>
        <mxCell id="KkAj1kQyP0uN1ew_DBom-191" value="PK" style="shape=partialRectangle;connectable=0;fillColor=none;top=0;left=0;bottom=0;right=0;fontStyle=1;overflow=hidden;whiteSpace=wrap;html=1;" vertex="1" parent="KkAj1kQyP0uN1ew_DBom-190">
          <mxGeometry width="30" height="30" as="geometry">
            <mxRectangle width="30" height="30" as="alternateBounds" />
          </mxGeometry>
        </mxCell>
        <mxCell id="KkAj1kQyP0uN1ew_DBom-192" value="review_id" style="shape=partialRectangle;connectable=0;fillColor=none;top=0;left=0;bottom=0;right=0;align=left;spacingLeft=6;fontStyle=5;overflow=hidden;whiteSpace=wrap;html=1;" vertex="1" parent="KkAj1kQyP0uN1ew_DBom-190">
          <mxGeometry x="30" width="220" height="30" as="geometry">
            <mxRectangle width="220" height="30" as="alternateBounds" />
          </mxGeometry>
        </mxCell>
        <mxCell id="KkAj1kQyP0uN1ew_DBom-193" value="" style="shape=tableRow;horizontal=0;startSize=0;swimlaneHead=0;swimlaneBody=0;fillColor=none;collapsible=0;dropTarget=0;points=[[0,0.5],[1,0.5]];portConstraint=eastwest;top=0;left=0;right=0;bottom=0;" vertex="1" parent="KkAj1kQyP0uN1ew_DBom-189">
          <mxGeometry y="60" width="250" height="30" as="geometry" />
        </mxCell>
        <mxCell id="KkAj1kQyP0uN1ew_DBom-194" value="" style="shape=partialRectangle;connectable=0;fillColor=none;top=0;left=0;bottom=0;right=0;editable=1;overflow=hidden;whiteSpace=wrap;html=1;" vertex="1" parent="KkAj1kQyP0uN1ew_DBom-193">
          <mxGeometry width="30" height="30" as="geometry">
            <mxRectangle width="30" height="30" as="alternateBounds" />
          </mxGeometry>
        </mxCell>
        <mxCell id="KkAj1kQyP0uN1ew_DBom-195" value="comment | text | Not Null" style="shape=partialRectangle;connectable=0;fillColor=none;top=0;left=0;bottom=0;right=0;align=left;spacingLeft=6;overflow=hidden;whiteSpace=wrap;html=1;" vertex="1" parent="KkAj1kQyP0uN1ew_DBom-193">
          <mxGeometry x="30" width="220" height="30" as="geometry">
            <mxRectangle width="220" height="30" as="alternateBounds" />
          </mxGeometry>
        </mxCell>
        <mxCell id="KkAj1kQyP0uN1ew_DBom-388" value="" style="shape=tableRow;horizontal=0;startSize=0;swimlaneHead=0;swimlaneBody=0;fillColor=none;collapsible=0;dropTarget=0;points=[[0,0.5],[1,0.5]];portConstraint=eastwest;top=0;left=0;right=0;bottom=0;" vertex="1" parent="KkAj1kQyP0uN1ew_DBom-189">
          <mxGeometry y="90" width="250" height="30" as="geometry" />
        </mxCell>
        <mxCell id="KkAj1kQyP0uN1ew_DBom-389" value="" style="shape=partialRectangle;connectable=0;fillColor=none;top=0;left=0;bottom=0;right=0;editable=1;overflow=hidden;whiteSpace=wrap;html=1;" vertex="1" parent="KkAj1kQyP0uN1ew_DBom-388">
          <mxGeometry width="30" height="30" as="geometry">
            <mxRectangle width="30" height="30" as="alternateBounds" />
          </mxGeometry>
        </mxCell>
        <mxCell id="KkAj1kQyP0uN1ew_DBom-390" value="rating | int | Not Null" style="shape=partialRectangle;connectable=0;fillColor=none;top=0;left=0;bottom=0;right=0;align=left;spacingLeft=6;overflow=hidden;whiteSpace=wrap;html=1;" vertex="1" parent="KkAj1kQyP0uN1ew_DBom-388">
          <mxGeometry x="30" width="220" height="30" as="geometry">
            <mxRectangle width="220" height="30" as="alternateBounds" />
          </mxGeometry>
        </mxCell>
        <mxCell id="KkAj1kQyP0uN1ew_DBom-196" value="" style="shape=tableRow;horizontal=0;startSize=0;swimlaneHead=0;swimlaneBody=0;fillColor=none;collapsible=0;dropTarget=0;points=[[0,0.5],[1,0.5]];portConstraint=eastwest;top=0;left=0;right=0;bottom=0;" vertex="1" parent="KkAj1kQyP0uN1ew_DBom-189">
          <mxGeometry y="120" width="250" height="30" as="geometry" />
        </mxCell>
        <mxCell id="KkAj1kQyP0uN1ew_DBom-197" value="" style="shape=partialRectangle;connectable=0;fillColor=none;top=0;left=0;bottom=0;right=0;editable=1;overflow=hidden;whiteSpace=wrap;html=1;" vertex="1" parent="KkAj1kQyP0uN1ew_DBom-196">
          <mxGeometry width="30" height="30" as="geometry">
            <mxRectangle width="30" height="30" as="alternateBounds" />
          </mxGeometry>
        </mxCell>
        <mxCell id="KkAj1kQyP0uN1ew_DBom-198" value="created_at | datetime" style="shape=partialRectangle;connectable=0;fillColor=none;top=0;left=0;bottom=0;right=0;align=left;spacingLeft=6;overflow=hidden;whiteSpace=wrap;html=1;" vertex="1" parent="KkAj1kQyP0uN1ew_DBom-196">
          <mxGeometry x="30" width="220" height="30" as="geometry">
            <mxRectangle width="220" height="30" as="alternateBounds" />
          </mxGeometry>
        </mxCell>
        <mxCell id="KkAj1kQyP0uN1ew_DBom-199" value="" style="shape=tableRow;horizontal=0;startSize=0;swimlaneHead=0;swimlaneBody=0;fillColor=none;collapsible=0;dropTarget=0;points=[[0,0.5],[1,0.5]];portConstraint=eastwest;top=0;left=0;right=0;bottom=0;" vertex="1" parent="KkAj1kQyP0uN1ew_DBom-189">
          <mxGeometry y="150" width="250" height="30" as="geometry" />
        </mxCell>
        <mxCell id="KkAj1kQyP0uN1ew_DBom-200" value="" style="shape=partialRectangle;connectable=0;fillColor=none;top=0;left=0;bottom=0;right=0;editable=1;overflow=hidden;whiteSpace=wrap;html=1;" vertex="1" parent="KkAj1kQyP0uN1ew_DBom-199">
          <mxGeometry width="30" height="30" as="geometry">
            <mxRectangle width="30" height="30" as="alternateBounds" />
          </mxGeometry>
        </mxCell>
        <mxCell id="KkAj1kQyP0uN1ew_DBom-201" value="updated_at | datetime" style="shape=partialRectangle;connectable=0;fillColor=none;top=0;left=0;bottom=0;right=0;align=left;spacingLeft=6;overflow=hidden;whiteSpace=wrap;html=1;" vertex="1" parent="KkAj1kQyP0uN1ew_DBom-199">
          <mxGeometry x="30" width="220" height="30" as="geometry">
            <mxRectangle width="220" height="30" as="alternateBounds" />
          </mxGeometry>
        </mxCell>
        <mxCell id="KkAj1kQyP0uN1ew_DBom-202" value="" style="shape=tableRow;horizontal=0;startSize=0;swimlaneHead=0;swimlaneBody=0;fillColor=none;collapsible=0;dropTarget=0;points=[[0,0.5],[1,0.5]];portConstraint=eastwest;top=0;left=0;right=0;bottom=0;" vertex="1" parent="KkAj1kQyP0uN1ew_DBom-189">
          <mxGeometry y="180" width="250" height="30" as="geometry" />
        </mxCell>
        <mxCell id="KkAj1kQyP0uN1ew_DBom-203" value="FK" style="shape=partialRectangle;connectable=0;fillColor=none;top=0;left=0;bottom=0;right=0;editable=1;overflow=hidden;whiteSpace=wrap;html=1;" vertex="1" parent="KkAj1kQyP0uN1ew_DBom-202">
          <mxGeometry width="30" height="30" as="geometry">
            <mxRectangle width="30" height="30" as="alternateBounds" />
          </mxGeometry>
        </mxCell>
        <mxCell id="KkAj1kQyP0uN1ew_DBom-204" value="customer_id | int | Not Null" style="shape=partialRectangle;connectable=0;fillColor=none;top=0;left=0;bottom=0;right=0;align=left;spacingLeft=6;overflow=hidden;whiteSpace=wrap;html=1;" vertex="1" parent="KkAj1kQyP0uN1ew_DBom-202">
          <mxGeometry x="30" width="220" height="30" as="geometry">
            <mxRectangle width="220" height="30" as="alternateBounds" />
          </mxGeometry>
        </mxCell>
        <mxCell id="KkAj1kQyP0uN1ew_DBom-205" value="" style="shape=tableRow;horizontal=0;startSize=0;swimlaneHead=0;swimlaneBody=0;fillColor=none;collapsible=0;dropTarget=0;points=[[0,0.5],[1,0.5]];portConstraint=eastwest;top=0;left=0;right=0;bottom=0;" vertex="1" parent="KkAj1kQyP0uN1ew_DBom-189">
          <mxGeometry y="210" width="250" height="30" as="geometry" />
        </mxCell>
        <mxCell id="KkAj1kQyP0uN1ew_DBom-206" value="FK" style="shape=partialRectangle;connectable=0;fillColor=none;top=0;left=0;bottom=0;right=0;editable=1;overflow=hidden;whiteSpace=wrap;html=1;" vertex="1" parent="KkAj1kQyP0uN1ew_DBom-205">
          <mxGeometry width="30" height="30" as="geometry">
            <mxRectangle width="30" height="30" as="alternateBounds" />
          </mxGeometry>
        </mxCell>
        <mxCell id="KkAj1kQyP0uN1ew_DBom-207" value="service_provider_id | int | Not Null" style="shape=partialRectangle;connectable=0;fillColor=none;top=0;left=0;bottom=0;right=0;align=left;spacingLeft=6;overflow=hidden;whiteSpace=wrap;html=1;" vertex="1" parent="KkAj1kQyP0uN1ew_DBom-205">
          <mxGeometry x="30" width="220" height="30" as="geometry">
            <mxRectangle width="220" height="30" as="alternateBounds" />
          </mxGeometry>
        </mxCell>
        <mxCell id="KkAj1kQyP0uN1ew_DBom-209" value="" style="edgeStyle=entityRelationEdgeStyle;fontSize=12;html=1;endArrow=ERoneToMany;rounded=0;fillColor=#1ba1e2;strokeColor=#006EAF;" edge="1" parent="1" source="KkAj1kQyP0uN1ew_DBom-98" target="KkAj1kQyP0uN1ew_DBom-205">
          <mxGeometry width="100" height="100" relative="1" as="geometry">
            <mxPoint x="400" y="600" as="sourcePoint" />
            <mxPoint x="475" y="500" as="targetPoint" />
          </mxGeometry>
        </mxCell>
        <mxCell id="KkAj1kQyP0uN1ew_DBom-210" value="" style="edgeStyle=entityRelationEdgeStyle;fontSize=12;html=1;endArrow=ERoneToMany;rounded=0;labelBackgroundColor=none;labelBorderColor=none;fontColor=none;noLabel=1;strokeColor=#2D7600;fillColor=#60a917;" edge="1" parent="1" source="KkAj1kQyP0uN1ew_DBom-63" target="KkAj1kQyP0uN1ew_DBom-202">
          <mxGeometry width="100" height="100" relative="1" as="geometry">
            <mxPoint x="640" y="320" as="sourcePoint" />
            <mxPoint x="750" y="410" as="targetPoint" />
          </mxGeometry>
        </mxCell>
        <mxCell id="KkAj1kQyP0uN1ew_DBom-211" value="" style="edgeStyle=entityRelationEdgeStyle;fontSize=12;html=1;endArrow=ERoneToMany;rounded=0;fillColor=#60a917;strokeColor=#2D7600;" edge="1" parent="1" source="KkAj1kQyP0uN1ew_DBom-63" target="KkAj1kQyP0uN1ew_DBom-60">
          <mxGeometry width="100" height="100" relative="1" as="geometry">
            <mxPoint x="370" y="245" as="sourcePoint" />
            <mxPoint x="630" y="180" as="targetPoint" />
          </mxGeometry>
        </mxCell>
        <mxCell id="KkAj1kQyP0uN1ew_DBom-212" value="" style="edgeStyle=entityRelationEdgeStyle;fontSize=12;html=1;endArrow=ERoneToMany;rounded=0;fontColor=light-dark(#000000,#67AB9F);fillColor=#1ba1e2;strokeColor=#006EAF;" edge="1" parent="1" source="KkAj1kQyP0uN1ew_DBom-97" target="KkAj1kQyP0uN1ew_DBom-57">
          <mxGeometry width="100" height="100" relative="1" as="geometry">
            <mxPoint x="380" y="550" as="sourcePoint" />
            <mxPoint x="790" y="290" as="targetPoint" />
          </mxGeometry>
        </mxCell>
        <mxCell id="KkAj1kQyP0uN1ew_DBom-249" value="availabilty" style="shape=table;startSize=30;container=1;collapsible=1;childLayout=tableLayout;fixedRows=1;rowLines=0;fontStyle=1;align=center;resizeLast=1;html=1;" vertex="1" parent="1">
          <mxGeometry x="700" y="690" width="250" height="330" as="geometry" />
        </mxCell>
        <mxCell id="KkAj1kQyP0uN1ew_DBom-250" value="" style="shape=tableRow;horizontal=0;startSize=0;swimlaneHead=0;swimlaneBody=0;fillColor=none;collapsible=0;dropTarget=0;points=[[0,0.5],[1,0.5]];portConstraint=eastwest;top=0;left=0;right=0;bottom=1;" vertex="1" parent="KkAj1kQyP0uN1ew_DBom-249">
          <mxGeometry y="30" width="250" height="30" as="geometry" />
        </mxCell>
        <mxCell id="KkAj1kQyP0uN1ew_DBom-251" value="PK" style="shape=partialRectangle;connectable=0;fillColor=none;top=0;left=0;bottom=0;right=0;fontStyle=1;overflow=hidden;whiteSpace=wrap;html=1;" vertex="1" parent="KkAj1kQyP0uN1ew_DBom-250">
          <mxGeometry width="30" height="30" as="geometry">
            <mxRectangle width="30" height="30" as="alternateBounds" />
          </mxGeometry>
        </mxCell>
        <mxCell id="KkAj1kQyP0uN1ew_DBom-252" value="availability_id" style="shape=partialRectangle;connectable=0;fillColor=none;top=0;left=0;bottom=0;right=0;align=left;spacingLeft=6;fontStyle=5;overflow=hidden;whiteSpace=wrap;html=1;" vertex="1" parent="KkAj1kQyP0uN1ew_DBom-250">
          <mxGeometry x="30" width="220" height="30" as="geometry">
            <mxRectangle width="220" height="30" as="alternateBounds" />
          </mxGeometry>
        </mxCell>
        <mxCell id="KkAj1kQyP0uN1ew_DBom-253" value="" style="shape=tableRow;horizontal=0;startSize=0;swimlaneHead=0;swimlaneBody=0;fillColor=none;collapsible=0;dropTarget=0;points=[[0,0.5],[1,0.5]];portConstraint=eastwest;top=0;left=0;right=0;bottom=0;" vertex="1" parent="KkAj1kQyP0uN1ew_DBom-249">
          <mxGeometry y="60" width="250" height="30" as="geometry" />
        </mxCell>
        <mxCell id="KkAj1kQyP0uN1ew_DBom-254" value="" style="shape=partialRectangle;connectable=0;fillColor=none;top=0;left=0;bottom=0;right=0;editable=1;overflow=hidden;whiteSpace=wrap;html=1;" vertex="1" parent="KkAj1kQyP0uN1ew_DBom-253">
          <mxGeometry width="30" height="30" as="geometry">
            <mxRectangle width="30" height="30" as="alternateBounds" />
          </mxGeometry>
        </mxCell>
        <mxCell id="KkAj1kQyP0uN1ew_DBom-255" value="start_date | date | Not Null" style="shape=partialRectangle;connectable=0;fillColor=none;top=0;left=0;bottom=0;right=0;align=left;spacingLeft=6;overflow=hidden;whiteSpace=wrap;html=1;" vertex="1" parent="KkAj1kQyP0uN1ew_DBom-253">
          <mxGeometry x="30" width="220" height="30" as="geometry">
            <mxRectangle width="220" height="30" as="alternateBounds" />
          </mxGeometry>
        </mxCell>
        <mxCell id="KkAj1kQyP0uN1ew_DBom-256" value="" style="shape=tableRow;horizontal=0;startSize=0;swimlaneHead=0;swimlaneBody=0;fillColor=none;collapsible=0;dropTarget=0;points=[[0,0.5],[1,0.5]];portConstraint=eastwest;top=0;left=0;right=0;bottom=0;" vertex="1" parent="KkAj1kQyP0uN1ew_DBom-249">
          <mxGeometry y="90" width="250" height="30" as="geometry" />
        </mxCell>
        <mxCell id="KkAj1kQyP0uN1ew_DBom-257" value="" style="shape=partialRectangle;connectable=0;fillColor=none;top=0;left=0;bottom=0;right=0;editable=1;overflow=hidden;whiteSpace=wrap;html=1;" vertex="1" parent="KkAj1kQyP0uN1ew_DBom-256">
          <mxGeometry width="30" height="30" as="geometry">
            <mxRectangle width="30" height="30" as="alternateBounds" />
          </mxGeometry>
        </mxCell>
        <mxCell id="KkAj1kQyP0uN1ew_DBom-258" value="end_date | date | Not Null" style="shape=partialRectangle;connectable=0;fillColor=none;top=0;left=0;bottom=0;right=0;align=left;spacingLeft=6;overflow=hidden;whiteSpace=wrap;html=1;" vertex="1" parent="KkAj1kQyP0uN1ew_DBom-256">
          <mxGeometry x="30" width="220" height="30" as="geometry">
            <mxRectangle width="220" height="30" as="alternateBounds" />
          </mxGeometry>
        </mxCell>
        <mxCell id="KkAj1kQyP0uN1ew_DBom-277" value="" style="shape=tableRow;horizontal=0;startSize=0;swimlaneHead=0;swimlaneBody=0;fillColor=none;collapsible=0;dropTarget=0;points=[[0,0.5],[1,0.5]];portConstraint=eastwest;top=0;left=0;right=0;bottom=0;" vertex="1" parent="KkAj1kQyP0uN1ew_DBom-249">
          <mxGeometry y="120" width="250" height="30" as="geometry" />
        </mxCell>
        <mxCell id="KkAj1kQyP0uN1ew_DBom-278" value="" style="shape=partialRectangle;connectable=0;fillColor=none;top=0;left=0;bottom=0;right=0;editable=1;overflow=hidden;whiteSpace=wrap;html=1;" vertex="1" parent="KkAj1kQyP0uN1ew_DBom-277">
          <mxGeometry width="30" height="30" as="geometry">
            <mxRectangle width="30" height="30" as="alternateBounds" />
          </mxGeometry>
        </mxCell>
        <mxCell id="KkAj1kQyP0uN1ew_DBom-279" value="start_time | time | Not Null" style="shape=partialRectangle;connectable=0;fillColor=none;top=0;left=0;bottom=0;right=0;align=left;spacingLeft=6;overflow=hidden;whiteSpace=wrap;html=1;" vertex="1" parent="KkAj1kQyP0uN1ew_DBom-277">
          <mxGeometry x="30" width="220" height="30" as="geometry">
            <mxRectangle width="220" height="30" as="alternateBounds" />
          </mxGeometry>
        </mxCell>
        <mxCell id="KkAj1kQyP0uN1ew_DBom-283" value="" style="shape=tableRow;horizontal=0;startSize=0;swimlaneHead=0;swimlaneBody=0;fillColor=none;collapsible=0;dropTarget=0;points=[[0,0.5],[1,0.5]];portConstraint=eastwest;top=0;left=0;right=0;bottom=0;" vertex="1" parent="KkAj1kQyP0uN1ew_DBom-249">
          <mxGeometry y="150" width="250" height="30" as="geometry" />
        </mxCell>
        <mxCell id="KkAj1kQyP0uN1ew_DBom-284" value="" style="shape=partialRectangle;connectable=0;fillColor=none;top=0;left=0;bottom=0;right=0;editable=1;overflow=hidden;whiteSpace=wrap;html=1;" vertex="1" parent="KkAj1kQyP0uN1ew_DBom-283">
          <mxGeometry width="30" height="30" as="geometry">
            <mxRectangle width="30" height="30" as="alternateBounds" />
          </mxGeometry>
        </mxCell>
        <mxCell id="KkAj1kQyP0uN1ew_DBom-285" value="end_time | time | Not Null" style="shape=partialRectangle;connectable=0;fillColor=none;top=0;left=0;bottom=0;right=0;align=left;spacingLeft=6;overflow=hidden;whiteSpace=wrap;html=1;" vertex="1" parent="KkAj1kQyP0uN1ew_DBom-283">
          <mxGeometry x="30" width="220" height="30" as="geometry">
            <mxRectangle width="220" height="30" as="alternateBounds" />
          </mxGeometry>
        </mxCell>
        <mxCell id="KkAj1kQyP0uN1ew_DBom-259" value="" style="shape=tableRow;horizontal=0;startSize=0;swimlaneHead=0;swimlaneBody=0;fillColor=none;collapsible=0;dropTarget=0;points=[[0,0.5],[1,0.5]];portConstraint=eastwest;top=0;left=0;right=0;bottom=0;" vertex="1" parent="KkAj1kQyP0uN1ew_DBom-249">
          <mxGeometry y="180" width="250" height="30" as="geometry" />
        </mxCell>
        <mxCell id="KkAj1kQyP0uN1ew_DBom-260" value="" style="shape=partialRectangle;connectable=0;fillColor=none;top=0;left=0;bottom=0;right=0;editable=1;overflow=hidden;whiteSpace=wrap;html=1;" vertex="1" parent="KkAj1kQyP0uN1ew_DBom-259">
          <mxGeometry width="30" height="30" as="geometry">
            <mxRectangle width="30" height="30" as="alternateBounds" />
          </mxGeometry>
        </mxCell>
        <mxCell id="KkAj1kQyP0uN1ew_DBom-261" value="status | varchar(15) | Not Null" style="shape=partialRectangle;connectable=0;fillColor=none;top=0;left=0;bottom=0;right=0;align=left;spacingLeft=6;overflow=hidden;whiteSpace=wrap;html=1;" vertex="1" parent="KkAj1kQyP0uN1ew_DBom-259">
          <mxGeometry x="30" width="220" height="30" as="geometry">
            <mxRectangle width="220" height="30" as="alternateBounds" />
          </mxGeometry>
        </mxCell>
        <mxCell id="KkAj1kQyP0uN1ew_DBom-286" value="" style="shape=tableRow;horizontal=0;startSize=0;swimlaneHead=0;swimlaneBody=0;fillColor=none;collapsible=0;dropTarget=0;points=[[0,0.5],[1,0.5]];portConstraint=eastwest;top=0;left=0;right=0;bottom=0;" vertex="1" parent="KkAj1kQyP0uN1ew_DBom-249">
          <mxGeometry y="210" width="250" height="30" as="geometry" />
        </mxCell>
        <mxCell id="KkAj1kQyP0uN1ew_DBom-287" value="" style="shape=partialRectangle;connectable=0;fillColor=none;top=0;left=0;bottom=0;right=0;editable=1;overflow=hidden;whiteSpace=wrap;html=1;" vertex="1" parent="KkAj1kQyP0uN1ew_DBom-286">
          <mxGeometry width="30" height="30" as="geometry">
            <mxRectangle width="30" height="30" as="alternateBounds" />
          </mxGeometry>
        </mxCell>
        <mxCell id="KkAj1kQyP0uN1ew_DBom-288" value="weekday | int" style="shape=partialRectangle;connectable=0;fillColor=none;top=0;left=0;bottom=0;right=0;align=left;spacingLeft=6;overflow=hidden;whiteSpace=wrap;html=1;" vertex="1" parent="KkAj1kQyP0uN1ew_DBom-286">
          <mxGeometry x="30" width="220" height="30" as="geometry">
            <mxRectangle width="220" height="30" as="alternateBounds" />
          </mxGeometry>
        </mxCell>
        <mxCell id="KkAj1kQyP0uN1ew_DBom-262" value="" style="shape=tableRow;horizontal=0;startSize=0;swimlaneHead=0;swimlaneBody=0;fillColor=none;collapsible=0;dropTarget=0;points=[[0,0.5],[1,0.5]];portConstraint=eastwest;top=0;left=0;right=0;bottom=0;" vertex="1" parent="KkAj1kQyP0uN1ew_DBom-249">
          <mxGeometry y="240" width="250" height="30" as="geometry" />
        </mxCell>
        <mxCell id="KkAj1kQyP0uN1ew_DBom-263" value="" style="shape=partialRectangle;connectable=0;fillColor=none;top=0;left=0;bottom=0;right=0;editable=1;overflow=hidden;whiteSpace=wrap;html=1;" vertex="1" parent="KkAj1kQyP0uN1ew_DBom-262">
          <mxGeometry width="30" height="30" as="geometry">
            <mxRectangle width="30" height="30" as="alternateBounds" />
          </mxGeometry>
        </mxCell>
        <mxCell id="KkAj1kQyP0uN1ew_DBom-264" value="created_at | datetime" style="shape=partialRectangle;connectable=0;fillColor=none;top=0;left=0;bottom=0;right=0;align=left;spacingLeft=6;overflow=hidden;whiteSpace=wrap;html=1;" vertex="1" parent="KkAj1kQyP0uN1ew_DBom-262">
          <mxGeometry x="30" width="220" height="30" as="geometry">
            <mxRectangle width="220" height="30" as="alternateBounds" />
          </mxGeometry>
        </mxCell>
        <mxCell id="KkAj1kQyP0uN1ew_DBom-265" value="" style="shape=tableRow;horizontal=0;startSize=0;swimlaneHead=0;swimlaneBody=0;fillColor=none;collapsible=0;dropTarget=0;points=[[0,0.5],[1,0.5]];portConstraint=eastwest;top=0;left=0;right=0;bottom=0;" vertex="1" parent="KkAj1kQyP0uN1ew_DBom-249">
          <mxGeometry y="270" width="250" height="30" as="geometry" />
        </mxCell>
        <mxCell id="KkAj1kQyP0uN1ew_DBom-266" value="" style="shape=partialRectangle;connectable=0;fillColor=none;top=0;left=0;bottom=0;right=0;editable=1;overflow=hidden;whiteSpace=wrap;html=1;" vertex="1" parent="KkAj1kQyP0uN1ew_DBom-265">
          <mxGeometry width="30" height="30" as="geometry">
            <mxRectangle width="30" height="30" as="alternateBounds" />
          </mxGeometry>
        </mxCell>
        <mxCell id="KkAj1kQyP0uN1ew_DBom-267" value="updated_at | datetime" style="shape=partialRectangle;connectable=0;fillColor=none;top=0;left=0;bottom=0;right=0;align=left;spacingLeft=6;overflow=hidden;whiteSpace=wrap;html=1;" vertex="1" parent="KkAj1kQyP0uN1ew_DBom-265">
          <mxGeometry x="30" width="220" height="30" as="geometry">
            <mxRectangle width="220" height="30" as="alternateBounds" />
          </mxGeometry>
        </mxCell>
        <mxCell id="KkAj1kQyP0uN1ew_DBom-271" value="" style="shape=tableRow;horizontal=0;startSize=0;swimlaneHead=0;swimlaneBody=0;fillColor=none;collapsible=0;dropTarget=0;points=[[0,0.5],[1,0.5]];portConstraint=eastwest;top=0;left=0;right=0;bottom=0;" vertex="1" parent="KkAj1kQyP0uN1ew_DBom-249">
          <mxGeometry y="300" width="250" height="30" as="geometry" />
        </mxCell>
        <mxCell id="KkAj1kQyP0uN1ew_DBom-272" value="FK" style="shape=partialRectangle;connectable=0;fillColor=none;top=0;left=0;bottom=0;right=0;editable=1;overflow=hidden;whiteSpace=wrap;html=1;" vertex="1" parent="KkAj1kQyP0uN1ew_DBom-271">
          <mxGeometry width="30" height="30" as="geometry">
            <mxRectangle width="30" height="30" as="alternateBounds" />
          </mxGeometry>
        </mxCell>
        <mxCell id="KkAj1kQyP0uN1ew_DBom-273" value="service_provider_id | int | Not Null" style="shape=partialRectangle;connectable=0;fillColor=none;top=0;left=0;bottom=0;right=0;align=left;spacingLeft=6;overflow=hidden;whiteSpace=wrap;html=1;" vertex="1" parent="KkAj1kQyP0uN1ew_DBom-271">
          <mxGeometry x="30" width="220" height="30" as="geometry">
            <mxRectangle width="220" height="30" as="alternateBounds" />
          </mxGeometry>
        </mxCell>
        <mxCell id="KkAj1kQyP0uN1ew_DBom-320" value="service_images&lt;span style=&quot;color: light-dark(rgba(0, 0, 0, 0), rgb(237, 237, 237)); font-family: monospace; font-size: 0px; font-weight: 400; text-align: start; background-color: transparent;&quot;&gt;%3CmxGraphModel%3E%3Croot%3E%3CmxCell%20id%3D%220%22%2F%3E%3CmxCell%20id%3D%221%22%20parent%3D%220%22%2F%3E%3CmxCell%20id%3D%222%22%20value%3D%22customers%22%20style%3D%22shape%3Dtable%3BstartSize%3D30%3Bcontainer%3D1%3Bcollapsible%3D1%3BchildLayout%3DtableLayout%3BfixedRows%3D1%3BrowLines%3D0%3BfontStyle%3D1%3Balign%3Dcenter%3BresizeLast%3D1%3Bhtml%3D1%3B%22%20vertex%3D%221%22%20parent%3D%221%22%3E%3CmxGeometry%20x%3D%22-10%22%20y%3D%22160%22%20width%3D%22180%22%20height%3D%22210%22%20as%3D%22geometry%22%2F%3E%3C%2FmxCell%3E%3CmxCell%20id%3D%223%22%20value%3D%22%22%20style%3D%22shape%3DtableRow%3Bhorizontal%3D0%3BstartSize%3D0%3BswimlaneHead%3D0%3BswimlaneBody%3D0%3BfillColor%3Dnone%3Bcollapsible%3D0%3BdropTarget%3D0%3Bpoints%3D%5B%5B0%2C0.5%5D%2C%5B1%2C0.5%5D%5D%3BportConstraint%3Deastwest%3Btop%3D0%3Bleft%3D0%3Bright%3D0%3Bbottom%3D1%3B%22%20vertex%3D%221%22%20parent%3D%222%22%3E%3CmxGeometry%20y%3D%2230%22%20width%3D%22180%22%20height%3D%2230%22%20as%3D%22geometry%22%2F%3E%3C%2FmxCell%3E%3CmxCell%20id%3D%224%22%20value%3D%22PK%22%20style%3D%22shape%3DpartialRectangle%3Bconnectable%3D0%3BfillColor%3Dnone%3Btop%3D0%3Bleft%3D0%3Bbottom%3D0%3Bright%3D0%3BfontStyle%3D1%3Boverflow%3Dhidden%3BwhiteSpace%3Dwrap%3Bhtml%3D1%3B%22%20vertex%3D%221%22%20parent%3D%223%22%3E%3CmxGeometry%20width%3D%2230%22%20height%3D%2230%22%20as%3D%22geometry%22%3E%3CmxRectangle%20width%3D%2230%22%20height%3D%2230%22%20as%3D%22alternateBounds%22%2F%3E%3C%2FmxGeometry%3E%3C%2FmxCell%3E%3CmxCell%20id%3D%225%22%20value%3D%22id%22%20style%3D%22shape%3DpartialRectangle%3Bconnectable%3D0%3BfillColor%3Dnone%3Btop%3D0%3Bleft%3D0%3Bbottom%3D0%3Bright%3D0%3Balign%3Dleft%3BspacingLeft%3D6%3BfontStyle%3D5%3Boverflow%3Dhidden%3BwhiteSpace%3Dwrap%3Bhtml%3D1%3B%22%20vertex%3D%221%22%20parent%3D%223%22%3E%3CmxGeometry%20x%3D%2230%22%20width%3D%22150%22%20height%3D%2230%22%20as%3D%22geometry%22%3E%3CmxRectangle%20width%3D%22150%22%20height%3D%2230%22%20as%3D%22alternateBounds%22%2F%3E%3C%2FmxGeometry%3E%3C%2FmxCell%3E%3CmxCell%20id%3D%226%22%20value%3D%22%22%20style%3D%22shape%3DtableRow%3Bhorizontal%3D0%3BstartSize%3D0%3BswimlaneHead%3D0%3BswimlaneBody%3D0%3BfillColor%3Dnone%3Bcollapsible%3D0%3BdropTarget%3D0%3Bpoints%3D%5B%5B0%2C0.5%5D%2C%5B1%2C0.5%5D%5D%3BportConstraint%3Deastwest%3Btop%3D0%3Bleft%3D0%3Bright%3D0%3Bbottom%3D0%3B%22%20vertex%3D%221%22%20parent%3D%222%22%3E%3CmxGeometry%20y%3D%2260%22%20width%3D%22180%22%20height%3D%2230%22%20as%3D%22geometry%22%2F%3E%3C%2FmxCell%3E%3CmxCell%20id%3D%227%22%20value%3D%22%22%20style%3D%22shape%3DpartialRectangle%3Bconnectable%3D0%3BfillColor%3Dnone%3Btop%3D0%3Bleft%3D0%3Bbottom%3D0%3Bright%3D0%3Beditable%3D1%3Boverflow%3Dhidden%3BwhiteSpace%3Dwrap%3Bhtml%3D1%3B%22%20vertex%3D%221%22%20parent%3D%226%22%3E%3CmxGeometry%20width%3D%2230%22%20height%3D%2230%22%20as%3D%22geometry%22%3E%3CmxRectangle%20width%3D%2230%22%20height%3D%2230%22%20as%3D%22alternateBounds%22%2F%3E%3C%2FmxGeometry%3E%3C%2FmxCell%3E%3CmxCell%20id%3D%228%22%20value%3D%22username%22%20style%3D%22shape%3DpartialRectangle%3Bconnectable%3D0%3BfillColor%3Dnone%3Btop%3D0%3Bleft%3D0%3Bbottom%3D0%3Bright%3D0%3Balign%3Dleft%3BspacingLeft%3D6%3Boverflow%3Dhidden%3BwhiteSpace%3Dwrap%3Bhtml%3D1%3B%22%20vertex%3D%221%22%20parent%3D%226%22%3E%3CmxGeometry%20x%3D%2230%22%20width%3D%22150%22%20height%3D%2230%22%20as%3D%22geometry%22%3E%3CmxRectangle%20width%3D%22150%22%20height%3D%2230%22%20as%3D%22alternateBounds%22%2F%3E%3C%2FmxGeometry%3E%3C%2FmxCell%3E%3CmxCell%20id%3D%229%22%20value%3D%22%22%20style%3D%22shape%3DtableRow%3Bhorizontal%3D0%3BstartSize%3D0%3BswimlaneHead%3D0%3BswimlaneBody%3D0%3BfillColor%3Dnone%3Bcollapsible%3D0%3BdropTarget%3D0%3Bpoints%3D%5B%5B0%2C0.5%5D%2C%5B1%2C0.5%5D%5D%3BportConstraint%3Deastwest%3Btop%3D0%3Bleft%3D0%3Bright%3D0%3Bbottom%3D0%3B%22%20vertex%3D%221%22%20parent%3D%222%22%3E%3CmxGeometry%20y%3D%2290%22%20width%3D%22180%22%20height%3D%2230%22%20as%3D%22geometry%22%2F%3E%3C%2FmxCell%3E%3CmxCell%20id%3D%2210%22%20value%3D%22%22%20style%3D%22shape%3DpartialRectangle%3Bconnectable%3D0%3BfillColor%3Dnone%3Btop%3D0%3Bleft%3D0%3Bbottom%3D0%3Bright%3D0%3Beditable%3D1%3Boverflow%3Dhidden%3BwhiteSpace%3Dwrap%3Bhtml%3D1%3B%22%20vertex%3D%221%22%20parent%3D%229%22%3E%3CmxGeometry%20width%3D%2230%22%20height%3D%2230%22%20as%3D%22geometry%22%3E%3CmxRectangle%20width%3D%2230%22%20height%3D%2230%22%20as%3D%22alternateBounds%22%2F%3E%3C%2FmxGeometry%3E%3C%2FmxCell%3E%3CmxCell%20id%3D%2211%22%20value%3D%22created_at%22%20style%3D%22shape%3DpartialRectangle%3Bconnectable%3D0%3BfillColor%3Dnone%3Btop%3D0%3Bleft%3D0%3Bbottom%3D0%3Bright%3D0%3Balign%3Dleft%3BspacingLeft%3D6%3Boverflow%3Dhidden%3BwhiteSpace%3Dwrap%3Bhtml%3D1%3B%22%20vertex%3D%221%22%20parent%3D%229%22%3E%3CmxGeometry%20x%3D%2230%22%20width%3D%22150%22%20height%3D%2230%22%20as%3D%22geometry%22%3E%3CmxRectangle%20width%3D%22150%22%20height%3D%2230%22%20as%3D%22alternateBounds%22%2F%3E%3C%2FmxGeometry%3E%3C%2FmxCell%3E%3CmxCell%20id%3D%2212%22%20value%3D%22%22%20style%3D%22shape%3DtableRow%3Bhorizontal%3D0%3BstartSize%3D0%3BswimlaneHead%3D0%3BswimlaneBody%3D0%3BfillColor%3Dnone%3Bcollapsible%3D0%3BdropTarget%3D0%3Bpoints%3D%5B%5B0%2C0.5%5D%2C%5B1%2C0.5%5D%5D%3BportConstraint%3Deastwest%3Btop%3D0%3Bleft%3D0%3Bright%3D0%3Bbottom%3D0%3B%22%20vertex%3D%221%22%20parent%3D%222%22%3E%3CmxGeometry%20y%3D%22120%22%20width%3D%22180%22%20height%3D%2230%22%20as%3D%22geometry%22%2F%3E%3C%2FmxCell%3E%3CmxCell%20id%3D%2213%22%20value%3D%22%22%20style%3D%22shape%3DpartialRectangle%3Bconnectable%3D0%3BfillColor%3Dnone%3Btop%3D0%3Bleft%3D0%3Bbottom%3D0%3Bright%3D0%3Beditable%3D1%3Boverflow%3Dhidden%3BwhiteSpace%3Dwrap%3Bhtml%3D1%3B%22%20vertex%3D%221%22%20parent%3D%2212%22%3E%3CmxGeometry%20width%3D%2230%22%20height%3D%2230%22%20as%3D%22geometry%22%3E%3CmxRectangle%20width%3D%2230%22%20height%3D%2230%22%20as%3D%22alternateBounds%22%2F%3E%3C%2FmxGeometry%3E%3C%2FmxCell%3E%3CmxCell%20id%3D%2214%22%20value%3D%22updated_at%22%20style%3D%22shape%3DpartialRectangle%3Bconnectable%3D0%3BfillColor%3Dnone%3Btop%3D0%3Bleft%3D0%3Bbottom%3D0%3Bright%3D0%3Balign%3Dleft%3BspacingLeft%3D6%3Boverflow%3Dhidden%3BwhiteSpace%3Dwrap%3Bhtml%3D1%3B%22%20vertex%3D%221%22%20parent%3D%2212%22%3E%3CmxGeometry%20x%3D%2230%22%20width%3D%22150%22%20height%3D%2230%22%20as%3D%22geometry%22%3E%3CmxRectangle%20width%3D%22150%22%20height%3D%2230%22%20as%3D%22alternateBounds%22%2F%3E%3C%2FmxGeometry%3E%3C%2FmxCell%3E%3CmxCell%20id%3D%2215%22%20value%3D%22%22%20style%3D%22shape%3DtableRow%3Bhorizontal%3D0%3BstartSize%3D0%3BswimlaneHead%3D0%3BswimlaneBody%3D0%3BfillColor%3Dnone%3Bcollapsible%3D0%3BdropTarget%3D0%3Bpoints%3D%5B%5B0%2C0.5%5D%2C%5B1%2C0.5%5D%5D%3BportConstraint%3Deastwest%3Btop%3D0%3Bleft%3D0%3Bright%3D0%3Bbottom%3D0%3B%22%20vertex%3D%221%22%20parent%3D%222%22%3E%3CmxGeometry%20y%3D%22150%22%20width%3D%22180%22%20height%3D%2230%22%20as%3D%22geometry%22%2F%3E%3C%2FmxCell%3E%3CmxCell%20id%3D%2216%22%20value%3D%22%22%20style%3D%22shape%3DpartialRectangle%3Bconnectable%3D0%3BfillColor%3Dnone%3Btop%3D0%3Bleft%3D0%3Bbottom%3D0%3Bright%3D0%3Beditable%3D1%3Boverflow%3Dhidden%3BwhiteSpace%3Dwrap%3Bhtml%3D1%3B%22%20vertex%3D%221%22%20parent%3D%2215%22%3E%3CmxGeometry%20width%3D%2230%22%20height%3D%2230%22%20as%3D%22geometry%22%3E%3CmxRectangle%20width%3D%2230%22%20height%3D%2230%22%20as%3D%22alternateBounds%22%2F%3E%3C%2FmxGeometry%3E%3C%2FmxCell%3E%3CmxCell%20id%3D%2217%22%20value%3D%22cpf%22%20style%3D%22shape%3DpartialRectangle%3Bconnectable%3D0%3BfillColor%3Dnone%3Btop%3D0%3Bleft%3D0%3Bbottom%3D0%3Bright%3D0%3Balign%3Dleft%3BspacingLeft%3D6%3Boverflow%3Dhidden%3BwhiteSpace%3Dwrap%3Bhtml%3D1%3B%22%20vertex%3D%221%22%20parent%3D%2215%22%3E%3CmxGeometry%20x%3D%2230%22%20width%3D%22150%22%20height%3D%2230%22%20as%3D%22geometry%22%3E%3CmxRectangle%20width%3D%22150%22%20height%3D%2230%22%20as%3D%22alternateBounds%22%2F%3E%3C%2FmxGeometry%3E%3C%2FmxCell%3E%3CmxCell%20id%3D%2218%22%20value%3D%22%22%20style%3D%22shape%3DtableRow%3Bhorizontal%3D0%3BstartSize%3D0%3BswimlaneHead%3D0%3BswimlaneBody%3D0%3BfillColor%3Dnone%3Bcollapsible%3D0%3BdropTarget%3D0%3Bpoints%3D%5B%5B0%2C0.5%5D%2C%5B1%2C0.5%5D%5D%3BportConstraint%3Deastwest%3Btop%3D0%3Bleft%3D0%3Bright%3D0%3Bbottom%3D0%3B%22%20vertex%3D%221%22%20parent%3D%222%22%3E%3CmxGeometry%20y%3D%22180%22%20width%3D%22180%22%20height%3D%2230%22%20as%3D%22geometry%22%2F%3E%3C%2FmxCell%3E%3CmxCell%20id%3D%2219%22%20value%3D%22%22%20style%3D%22shape%3DpartialRectangle%3Bconnectable%3D0%3BfillColor%3Dnone%3Btop%3D0%3Bleft%3D0%3Bbottom%3D0%3Bright%3D0%3Beditable%3D1%3Boverflow%3Dhidden%3BwhiteSpace%3Dwrap%3Bhtml%3D1%3B%22%20vertex%3D%221%22%20parent%3D%2218%22%3E%3CmxGeometry%20width%3D%2230%22%20height%3D%2230%22%20as%3D%22geometry%22%3E%3CmxRectangle%20width%3D%2230%22%20height%3D%2230%22%20as%3D%22alternateBounds%22%2F%3E%3C%2FmxGeometry%3E%3C%2FmxCell%3E%3CmxCell%20id%3D%2220%22%20value%3D%22password_hash%22%20style%3D%22shape%3DpartialRectangle%3Bconnectable%3D0%3BfillColor%3Dnone%3Btop%3D0%3Bleft%3D0%3Bbottom%3D0%3Bright%3D0%3Balign%3Dleft%3BspacingLeft%3D6%3Boverflow%3Dhidden%3BwhiteSpace%3Dwrap%3Bhtml%3D1%3B%22%20vertex%3D%221%22%20parent%3D%2218%22%3E%3CmxGeometry%20x%3D%2230%22%20width%3D%22150%22%20height%3D%2230%22%20as%3D%22geometry%22%3E%3CmxRectangle%20width%3D%22150%22%20height%3D%2230%22%20as%3D%22alternateBounds%22%2F%3E%3C%2FmxGeometry%3E%3C%2FmxCell%3E%3C%2Froot%3E%3C%2FmxGraphModel%&lt;/span&gt;" style="shape=table;startSize=30;container=1;collapsible=1;childLayout=tableLayout;fixedRows=1;rowLines=0;fontStyle=1;align=center;resizeLast=1;html=1;" vertex="1" parent="1">
          <mxGeometry x="1023" y="750" width="250" height="210" as="geometry" />
        </mxCell>
        <mxCell id="KkAj1kQyP0uN1ew_DBom-321" value="" style="shape=tableRow;horizontal=0;startSize=0;swimlaneHead=0;swimlaneBody=0;fillColor=none;collapsible=0;dropTarget=0;points=[[0,0.5],[1,0.5]];portConstraint=eastwest;top=0;left=0;right=0;bottom=1;" vertex="1" parent="KkAj1kQyP0uN1ew_DBom-320">
          <mxGeometry y="30" width="250" height="30" as="geometry" />
        </mxCell>
        <mxCell id="KkAj1kQyP0uN1ew_DBom-322" value="PK" style="shape=partialRectangle;connectable=0;fillColor=none;top=0;left=0;bottom=0;right=0;fontStyle=1;overflow=hidden;whiteSpace=wrap;html=1;" vertex="1" parent="KkAj1kQyP0uN1ew_DBom-321">
          <mxGeometry width="30" height="30" as="geometry">
            <mxRectangle width="30" height="30" as="alternateBounds" />
          </mxGeometry>
        </mxCell>
        <mxCell id="KkAj1kQyP0uN1ew_DBom-323" value="service_image_id" style="shape=partialRectangle;connectable=0;fillColor=none;top=0;left=0;bottom=0;right=0;align=left;spacingLeft=6;fontStyle=5;overflow=hidden;whiteSpace=wrap;html=1;" vertex="1" parent="KkAj1kQyP0uN1ew_DBom-321">
          <mxGeometry x="30" width="220" height="30" as="geometry">
            <mxRectangle width="220" height="30" as="alternateBounds" />
          </mxGeometry>
        </mxCell>
        <mxCell id="KkAj1kQyP0uN1ew_DBom-324" value="" style="shape=tableRow;horizontal=0;startSize=0;swimlaneHead=0;swimlaneBody=0;fillColor=none;collapsible=0;dropTarget=0;points=[[0,0.5],[1,0.5]];portConstraint=eastwest;top=0;left=0;right=0;bottom=0;" vertex="1" parent="KkAj1kQyP0uN1ew_DBom-320">
          <mxGeometry y="60" width="250" height="30" as="geometry" />
        </mxCell>
        <mxCell id="KkAj1kQyP0uN1ew_DBom-325" value="" style="shape=partialRectangle;connectable=0;fillColor=none;top=0;left=0;bottom=0;right=0;editable=1;overflow=hidden;whiteSpace=wrap;html=1;" vertex="1" parent="KkAj1kQyP0uN1ew_DBom-324">
          <mxGeometry width="30" height="30" as="geometry">
            <mxRectangle width="30" height="30" as="alternateBounds" />
          </mxGeometry>
        </mxCell>
        <mxCell id="KkAj1kQyP0uN1ew_DBom-326" value="image_name | varchar(150)" style="shape=partialRectangle;connectable=0;fillColor=none;top=0;left=0;bottom=0;right=0;align=left;spacingLeft=6;overflow=hidden;whiteSpace=wrap;html=1;" vertex="1" parent="KkAj1kQyP0uN1ew_DBom-324">
          <mxGeometry x="30" width="220" height="30" as="geometry">
            <mxRectangle width="220" height="30" as="alternateBounds" />
          </mxGeometry>
        </mxCell>
        <mxCell id="KkAj1kQyP0uN1ew_DBom-337" value="" style="shape=tableRow;horizontal=0;startSize=0;swimlaneHead=0;swimlaneBody=0;fillColor=none;collapsible=0;dropTarget=0;points=[[0,0.5],[1,0.5]];portConstraint=eastwest;top=0;left=0;right=0;bottom=0;" vertex="1" parent="KkAj1kQyP0uN1ew_DBom-320">
          <mxGeometry y="90" width="250" height="30" as="geometry" />
        </mxCell>
        <mxCell id="KkAj1kQyP0uN1ew_DBom-338" value="" style="shape=partialRectangle;connectable=0;fillColor=none;top=0;left=0;bottom=0;right=0;editable=1;overflow=hidden;whiteSpace=wrap;html=1;" vertex="1" parent="KkAj1kQyP0uN1ew_DBom-337">
          <mxGeometry width="30" height="30" as="geometry">
            <mxRectangle width="30" height="30" as="alternateBounds" />
          </mxGeometry>
        </mxCell>
        <mxCell id="KkAj1kQyP0uN1ew_DBom-339" value="filetype | varchar(10)" style="shape=partialRectangle;connectable=0;fillColor=none;top=0;left=0;bottom=0;right=0;align=left;spacingLeft=6;overflow=hidden;whiteSpace=wrap;html=1;" vertex="1" parent="KkAj1kQyP0uN1ew_DBom-337">
          <mxGeometry x="30" width="220" height="30" as="geometry">
            <mxRectangle width="220" height="30" as="alternateBounds" />
          </mxGeometry>
        </mxCell>
        <mxCell id="KkAj1kQyP0uN1ew_DBom-327" value="" style="shape=tableRow;horizontal=0;startSize=0;swimlaneHead=0;swimlaneBody=0;fillColor=none;collapsible=0;dropTarget=0;points=[[0,0.5],[1,0.5]];portConstraint=eastwest;top=0;left=0;right=0;bottom=0;" vertex="1" parent="KkAj1kQyP0uN1ew_DBom-320">
          <mxGeometry y="120" width="250" height="30" as="geometry" />
        </mxCell>
        <mxCell id="KkAj1kQyP0uN1ew_DBom-328" value="" style="shape=partialRectangle;connectable=0;fillColor=none;top=0;left=0;bottom=0;right=0;editable=1;overflow=hidden;whiteSpace=wrap;html=1;" vertex="1" parent="KkAj1kQyP0uN1ew_DBom-327">
          <mxGeometry width="30" height="30" as="geometry">
            <mxRectangle width="30" height="30" as="alternateBounds" />
          </mxGeometry>
        </mxCell>
        <mxCell id="KkAj1kQyP0uN1ew_DBom-329" value="created_at | datetime" style="shape=partialRectangle;connectable=0;fillColor=none;top=0;left=0;bottom=0;right=0;align=left;spacingLeft=6;overflow=hidden;whiteSpace=wrap;html=1;" vertex="1" parent="KkAj1kQyP0uN1ew_DBom-327">
          <mxGeometry x="30" width="220" height="30" as="geometry">
            <mxRectangle width="220" height="30" as="alternateBounds" />
          </mxGeometry>
        </mxCell>
        <mxCell id="KkAj1kQyP0uN1ew_DBom-330" value="" style="shape=tableRow;horizontal=0;startSize=0;swimlaneHead=0;swimlaneBody=0;fillColor=none;collapsible=0;dropTarget=0;points=[[0,0.5],[1,0.5]];portConstraint=eastwest;top=0;left=0;right=0;bottom=0;" vertex="1" parent="KkAj1kQyP0uN1ew_DBom-320">
          <mxGeometry y="150" width="250" height="30" as="geometry" />
        </mxCell>
        <mxCell id="KkAj1kQyP0uN1ew_DBom-331" value="" style="shape=partialRectangle;connectable=0;fillColor=none;top=0;left=0;bottom=0;right=0;editable=1;overflow=hidden;whiteSpace=wrap;html=1;" vertex="1" parent="KkAj1kQyP0uN1ew_DBom-330">
          <mxGeometry width="30" height="30" as="geometry">
            <mxRectangle width="30" height="30" as="alternateBounds" />
          </mxGeometry>
        </mxCell>
        <mxCell id="KkAj1kQyP0uN1ew_DBom-332" value="updated_at | datetime" style="shape=partialRectangle;connectable=0;fillColor=none;top=0;left=0;bottom=0;right=0;align=left;spacingLeft=6;overflow=hidden;whiteSpace=wrap;html=1;" vertex="1" parent="KkAj1kQyP0uN1ew_DBom-330">
          <mxGeometry x="30" width="220" height="30" as="geometry">
            <mxRectangle width="220" height="30" as="alternateBounds" />
          </mxGeometry>
        </mxCell>
        <mxCell id="KkAj1kQyP0uN1ew_DBom-333" value="" style="shape=tableRow;horizontal=0;startSize=0;swimlaneHead=0;swimlaneBody=0;fillColor=none;collapsible=0;dropTarget=0;points=[[0,0.5],[1,0.5]];portConstraint=eastwest;top=0;left=0;right=0;bottom=0;" vertex="1" parent="KkAj1kQyP0uN1ew_DBom-320">
          <mxGeometry y="180" width="250" height="30" as="geometry" />
        </mxCell>
        <mxCell id="KkAj1kQyP0uN1ew_DBom-334" value="FK" style="shape=partialRectangle;connectable=0;fillColor=none;top=0;left=0;bottom=0;right=0;editable=1;overflow=hidden;whiteSpace=wrap;html=1;" vertex="1" parent="KkAj1kQyP0uN1ew_DBom-333">
          <mxGeometry width="30" height="30" as="geometry">
            <mxRectangle width="30" height="30" as="alternateBounds" />
          </mxGeometry>
        </mxCell>
        <mxCell id="KkAj1kQyP0uN1ew_DBom-335" value="service_id | text" style="shape=partialRectangle;connectable=0;fillColor=none;top=0;left=0;bottom=0;right=0;align=left;spacingLeft=6;overflow=hidden;whiteSpace=wrap;html=1;" vertex="1" parent="KkAj1kQyP0uN1ew_DBom-333">
          <mxGeometry x="30" width="220" height="30" as="geometry">
            <mxRectangle width="220" height="30" as="alternateBounds" />
          </mxGeometry>
        </mxCell>
        <mxCell id="KkAj1kQyP0uN1ew_DBom-336" value="" style="edgeStyle=entityRelationEdgeStyle;fontSize=12;html=1;endArrow=ERoneToMany;rounded=0;" edge="1" parent="1" source="KkAj1kQyP0uN1ew_DBom-42" target="KkAj1kQyP0uN1ew_DBom-333">
          <mxGeometry width="100" height="100" relative="1" as="geometry">
            <mxPoint x="810" y="1120" as="sourcePoint" />
            <mxPoint x="872" y="950" as="targetPoint" />
          </mxGeometry>
        </mxCell>
        <mxCell id="KkAj1kQyP0uN1ew_DBom-340" value="" style="edgeStyle=entityRelationEdgeStyle;fontSize=12;html=1;endArrow=ERoneToMany;rounded=0;fillColor=#1ba1e2;strokeColor=#006EAF;" edge="1" parent="1" source="KkAj1kQyP0uN1ew_DBom-107" target="KkAj1kQyP0uN1ew_DBom-271">
          <mxGeometry width="100" height="100" relative="1" as="geometry">
            <mxPoint x="530" y="690" as="sourcePoint" />
            <mxPoint x="630" y="590" as="targetPoint" />
          </mxGeometry>
        </mxCell>
        <mxCell id="KkAj1kQyP0uN1ew_DBom-354" value="categories" style="shape=table;startSize=30;container=1;collapsible=1;childLayout=tableLayout;fixedRows=1;rowLines=0;fontStyle=1;align=center;resizeLast=1;html=1;" vertex="1" parent="1">
          <mxGeometry x="1278" y="390" width="250" height="90" as="geometry" />
        </mxCell>
        <mxCell id="KkAj1kQyP0uN1ew_DBom-355" value="" style="shape=tableRow;horizontal=0;startSize=0;swimlaneHead=0;swimlaneBody=0;fillColor=none;collapsible=0;dropTarget=0;points=[[0,0.5],[1,0.5]];portConstraint=eastwest;top=0;left=0;right=0;bottom=1;" vertex="1" parent="KkAj1kQyP0uN1ew_DBom-354">
          <mxGeometry y="30" width="250" height="30" as="geometry" />
        </mxCell>
        <mxCell id="KkAj1kQyP0uN1ew_DBom-356" value="PK" style="shape=partialRectangle;connectable=0;fillColor=none;top=0;left=0;bottom=0;right=0;fontStyle=1;overflow=hidden;whiteSpace=wrap;html=1;" vertex="1" parent="KkAj1kQyP0uN1ew_DBom-355">
          <mxGeometry width="30" height="30" as="geometry">
            <mxRectangle width="30" height="30" as="alternateBounds" />
          </mxGeometry>
        </mxCell>
        <mxCell id="KkAj1kQyP0uN1ew_DBom-357" value="category_id" style="shape=partialRectangle;connectable=0;fillColor=none;top=0;left=0;bottom=0;right=0;align=left;spacingLeft=6;fontStyle=5;overflow=hidden;whiteSpace=wrap;html=1;" vertex="1" parent="KkAj1kQyP0uN1ew_DBom-355">
          <mxGeometry x="30" width="220" height="30" as="geometry">
            <mxRectangle width="220" height="30" as="alternateBounds" />
          </mxGeometry>
        </mxCell>
        <mxCell id="KkAj1kQyP0uN1ew_DBom-358" value="" style="shape=tableRow;horizontal=0;startSize=0;swimlaneHead=0;swimlaneBody=0;fillColor=none;collapsible=0;dropTarget=0;points=[[0,0.5],[1,0.5]];portConstraint=eastwest;top=0;left=0;right=0;bottom=0;" vertex="1" parent="KkAj1kQyP0uN1ew_DBom-354">
          <mxGeometry y="60" width="250" height="30" as="geometry" />
        </mxCell>
        <mxCell id="KkAj1kQyP0uN1ew_DBom-359" value="" style="shape=partialRectangle;connectable=0;fillColor=none;top=0;left=0;bottom=0;right=0;editable=1;overflow=hidden;whiteSpace=wrap;html=1;" vertex="1" parent="KkAj1kQyP0uN1ew_DBom-358">
          <mxGeometry width="30" height="30" as="geometry">
            <mxRectangle width="30" height="30" as="alternateBounds" />
          </mxGeometry>
        </mxCell>
        <mxCell id="KkAj1kQyP0uN1ew_DBom-360" value="category | varchar(100) | Not null" style="shape=partialRectangle;connectable=0;fillColor=none;top=0;left=0;bottom=0;right=0;align=left;spacingLeft=6;overflow=hidden;whiteSpace=wrap;html=1;" vertex="1" parent="KkAj1kQyP0uN1ew_DBom-358">
          <mxGeometry x="30" width="220" height="30" as="geometry">
            <mxRectangle width="220" height="30" as="alternateBounds" />
          </mxGeometry>
        </mxCell>
        <mxCell id="KkAj1kQyP0uN1ew_DBom-367" value="" style="edgeStyle=entityRelationEdgeStyle;fontSize=12;html=1;endArrow=ERoneToMany;rounded=0;" edge="1" parent="1" source="KkAj1kQyP0uN1ew_DBom-369" target="KkAj1kQyP0uN1ew_DBom-355">
          <mxGeometry width="100" height="100" relative="1" as="geometry">
            <mxPoint x="1888" y="810" as="sourcePoint" />
            <mxPoint x="1950" y="640" as="targetPoint" />
          </mxGeometry>
        </mxCell>
        <mxCell id="KkAj1kQyP0uN1ew_DBom-368" value="cetories_services" style="shape=table;startSize=30;container=1;collapsible=1;childLayout=tableLayout;fixedRows=1;rowLines=0;fontStyle=1;align=center;resizeLast=1;html=1;whiteSpace=wrap;" vertex="1" parent="1">
          <mxGeometry x="1038" y="390" width="180" height="90" as="geometry" />
        </mxCell>
        <mxCell id="KkAj1kQyP0uN1ew_DBom-372" value="" style="shape=tableRow;horizontal=0;startSize=0;swimlaneHead=0;swimlaneBody=0;fillColor=none;collapsible=0;dropTarget=0;points=[[0,0.5],[1,0.5]];portConstraint=eastwest;top=0;left=0;right=0;bottom=1;html=1;" vertex="1" parent="KkAj1kQyP0uN1ew_DBom-368">
          <mxGeometry y="30" width="180" height="30" as="geometry" />
        </mxCell>
        <mxCell id="KkAj1kQyP0uN1ew_DBom-373" value="PK,FK2" style="shape=partialRectangle;connectable=0;fillColor=none;top=0;left=0;bottom=0;right=0;fontStyle=1;overflow=hidden;html=1;whiteSpace=wrap;" vertex="1" parent="KkAj1kQyP0uN1ew_DBom-372">
          <mxGeometry width="60" height="30" as="geometry">
            <mxRectangle width="60" height="30" as="alternateBounds" />
          </mxGeometry>
        </mxCell>
        <mxCell id="KkAj1kQyP0uN1ew_DBom-374" value="service_id" style="shape=partialRectangle;connectable=0;fillColor=none;top=0;left=0;bottom=0;right=0;align=left;spacingLeft=6;fontStyle=5;overflow=hidden;html=1;whiteSpace=wrap;" vertex="1" parent="KkAj1kQyP0uN1ew_DBom-372">
          <mxGeometry x="60" width="120" height="30" as="geometry">
            <mxRectangle width="120" height="30" as="alternateBounds" />
          </mxGeometry>
        </mxCell>
        <mxCell id="KkAj1kQyP0uN1ew_DBom-369" value="" style="shape=tableRow;horizontal=0;startSize=0;swimlaneHead=0;swimlaneBody=0;fillColor=none;collapsible=0;dropTarget=0;points=[[0,0.5],[1,0.5]];portConstraint=eastwest;top=0;left=0;right=0;bottom=0;html=1;" vertex="1" parent="KkAj1kQyP0uN1ew_DBom-368">
          <mxGeometry y="60" width="180" height="30" as="geometry" />
        </mxCell>
        <mxCell id="KkAj1kQyP0uN1ew_DBom-370" value="PK,FK1" style="shape=partialRectangle;connectable=0;fillColor=none;top=0;left=0;bottom=0;right=0;fontStyle=1;overflow=hidden;html=1;whiteSpace=wrap;" vertex="1" parent="KkAj1kQyP0uN1ew_DBom-369">
          <mxGeometry width="60" height="30" as="geometry">
            <mxRectangle width="60" height="30" as="alternateBounds" />
          </mxGeometry>
        </mxCell>
        <mxCell id="KkAj1kQyP0uN1ew_DBom-371" value="category_id" style="shape=partialRectangle;connectable=0;fillColor=none;top=0;left=0;bottom=0;right=0;align=left;spacingLeft=6;fontStyle=5;overflow=hidden;html=1;whiteSpace=wrap;" vertex="1" parent="KkAj1kQyP0uN1ew_DBom-369">
          <mxGeometry x="60" width="120" height="30" as="geometry">
            <mxRectangle width="120" height="30" as="alternateBounds" />
          </mxGeometry>
        </mxCell>
        <mxCell id="KkAj1kQyP0uN1ew_DBom-381" value="" style="edgeStyle=entityRelationEdgeStyle;fontSize=12;html=1;endArrow=ERoneToMany;rounded=0;" edge="1" parent="1" source="KkAj1kQyP0uN1ew_DBom-372" target="9P2hpkJDDSAmae0XuFdl-43">
          <mxGeometry width="100" height="100" relative="1" as="geometry">
            <mxPoint x="370" y="900" as="sourcePoint" />
            <mxPoint x="310" y="930" as="targetPoint" />
          </mxGeometry>
        </mxCell>
      </root>
    </mxGraphModel>
  </diagram>
</mxfile>
